<?xml version="1.0" encoding="UTF-8"?>
<svg width="50px" height="50px" viewBox="0 0 50 50" version="1.1" xmlns="http://www.w3.org/2000/svg" xmlns:xlink="http://www.w3.org/1999/xlink">
    <title>android-studio</title>
    <g id="android-studio" stroke="none" stroke-width="1" fill="none" fill-rule="evenodd">
        <g id="Group" transform="translate(4.000000, 0.000000)" fill-rule="nonzero">
            <path d="M15.2105263,6.65789474 L4.13157895,6.65789474 C1.8839787,6.6651451 0.0657777795,8.48923017 0.0657894737,10.7368421 C0.0337568109,11.8041133 0.435454531,12.8388361 1.17923002,13.6049249 C1.9230055,14.3710136 2.94540618,14.8031122 4.01315789,14.802632 L15.3289474,14.802632 L15.2105263,6.65789474 Z" id="Path" fill="#073042"></path>
            <path d="M40.4473684,42.9078947 L4.11842105,42.9078947 C1.88108603,42.8934715 0.0729603434,41.0794753 0.0657362011,38.8421053 L0.0657362011,10.7105263 C0.0600248916,11.8393551 0.522321611,12.9200982 1.34265989,13.6955548 C2.16299816,14.4710113 3.26801645,14.8718335 4.39473684,14.8026316 L34.5263158,14.8026316 C34.5263158,14.8026316 40.4473684,14.2894737 40.4473684,18.75 L40.4473684,42.9078947 Z" id="Path" fill="#4285F4"></path>
            <path d="M21.2631579,23.3421053 C20.3410656,23.3316774 19.5048586,23.8817575 19.1493509,24.732626 C18.7938433,25.5834946 18.9901388,26.5649722 19.6455568,27.2136556 C20.3009749,27.862339 21.2844275,28.0484872 22.1315789,27.6842105 C23.1435178,27.2842465 23.7242371,26.2174468 23.5108405,25.1504635 C23.2974438,24.0834802 22.3510876,23.3220956 21.2631579,23.3421053 L21.2631579,23.3421053 Z" id="Path" fill="#000000"></path>
            <path d="M23.5,28.5 C24.7412956,27.5657738 25.2570523,25.9493737 24.7862474,24.4688549 C24.3154424,22.9883361 22.9607976,21.9667237 21.4078947,21.9210526 L21.5263158,21.9210526 C21.7407598,21.9009887 21.9566086,21.9009887 22.1710526,21.9210526 L22.1710526,19.6578947 C22.1816796,19.3970032 22.0509438,19.1506166 21.8289474,19.0131579 C21.6057908,18.8811072 21.3284198,18.8811072 21.1052632,19.0131579 C20.8832667,19.1506166 20.752531,19.3970032 20.7631579,19.6578947 L20.7631579,21.9605263 C19.3019657,22.1923834 18.1227509,23.2787055 17.7720483,24.7160114 C17.4213457,26.1533172 17.9677016,27.6606786 19.1578947,28.5394737 L12.4605263,42.8552632 L16.8289474,42.8552632 L19.9210526,36.2763158 C20.1890133,35.7207452 20.7516056,35.3678464 21.3684211,35.3684211 C21.9823395,35.3664948 22.541718,35.7205967 22.8026316,36.2763158 L25.9868421,42.8552632 L30.4078947,42.8552632 L23.5,28.5 Z M21.2631579,27.8552632 C20.3528674,27.8487155 19.5351003,27.2974049 19.187632,26.4560147 C18.8401637,25.6146245 19.0306337,24.6469431 19.6710526,24 C20.3132851,23.3460419 21.2880141,23.1470296 22.1351982,23.4968906 C22.9823823,23.8467516 23.5326593,24.6755446 23.5263158,25.5921053 C23.5263158,26.8420129 22.5130655,27.8552632 21.2631579,27.8552632 L21.2631579,27.8552632 Z" id="Shape" fill="#3870B2"></path>
            <polygon id="Path" fill="#FFFFFF" points="12.8157895 8.65789474 28.3552632 8.65789474 28.3552632 11.5131579 12.8157895 11.5131579"></polygon>
            <path d="M20.0526316,23.3421053 C21.1247237,23.349413 22.0427431,24.1121497 22.2463487,25.1647558 C22.4499543,26.2173619 21.8825833,27.2674177 20.8905479,27.6739896 C19.8985125,28.0805614 18.7574056,27.7307015 18.1637366,26.8379575 C17.5700675,25.9452134 17.6887608,24.7575945 18.4473684,24 C18.8754343,23.578612 19.4519585,23.3423316 20.0526316,23.3421053 L20.0526316,23.3421053 Z M20.9473684,22.0263158 L20.9473684,19.6578947 C20.9579954,19.3970032 20.8272596,19.1506166 20.6052632,19.0131579 C20.3821066,18.8811072 20.1047355,18.8811072 19.8815789,19.0131579 C19.6595825,19.1506166 19.5288468,19.3970032 19.5394737,19.6578947 L19.5394737,21.9605263 C18.0782815,22.1923834 16.8990667,23.2787055 16.5483641,24.7160114 C16.1976614,26.1533172 16.7440174,27.6606786 17.9342105,28.5394737 L9.52631579,46.6315789 C9.20758818,47.2795527 9.26290949,48.0490218 9.67105263,48.6447368 C10.0851476,49.234882 10.7816146,49.5605681 11.5,49.5 C12.2186122,49.430994 12.8432489,48.9776286 13.1315789,48.3157895 L18.7368421,36.2763158 C19.0072379,35.72293 19.5683021,35.3709897 20.1842105,35.3684211 C20.798129,35.3664948 21.3575074,35.7205967 21.6184211,36.2763158 L27.3684211,48.25 C27.8480368,49.238299 29.0380168,49.6506683 30.0263158,49.1710526 C31.0146148,48.6914369 31.4269841,47.5014569 30.9473684,46.5131579 L22.2894737,28.5 C23.3910647,27.6381877 23.9023226,26.2220034 23.6052632,24.8552632 C23.3280982,23.4961053 22.3110131,22.4078242 20.9736842,22.0394737" id="Shape" fill="#073042"></path>
            <path d="M26.1052632,11.1710526 C25.6735596,11.1812485 25.2794184,10.9267483 25.1110679,10.5290927 C24.9427173,10.131437 25.0343103,9.67129757 25.3421053,9.36842105 C25.6467799,9.06663858 26.1026501,8.97685329 26.4990056,9.14056534 C26.8953611,9.30427739 27.1549927,9.68959604 27.1578947,10.1184211 C27.1578947,10.6997734 26.6866155,11.1710526 26.1052632,11.1710526 M14.4078947,11.1710526 C13.9785989,11.1757271 13.589482,10.9192201 13.4245639,10.522838 C13.2596458,10.1264558 13.3519779,9.669638 13.6578947,9.36842105 C13.9153376,9.05474298 14.3285729,8.91447663 14.7237679,9.00662685 C15.1189629,9.09877708 15.4275387,9.4073529 15.5196889,9.8025479 C15.6118392,10.1977429 15.4715728,10.6109782 15.1578947,10.8684211 C14.9589973,11.0664052 14.688497,11.1755544 14.4078947,11.1710526 M26.4868421,4.78947368 L28.5921053,1.13157895 C28.6740738,0.926163401 28.5936388,0.691679306 28.4028393,0.579831353 C28.2120399,0.467983399 27.9681448,0.512342915 27.8289474,0.684210526 L25.6973684,4.39473684 C22.2408846,2.84224598 18.2854312,2.84224598 14.8289474,4.39473684 L12.6842105,0.684210526 C12.6053502,0.547589061 12.4603658,0.462598179 12.3026316,0.460526316 C12.1469543,0.469670532 12.0050793,0.552838639 11.9210526,0.684210526 C11.841138,0.822626797 11.841138,0.993162676 11.9210526,1.13157895 L14.0394737,4.78947368 C10.329529,6.82026801 7.89488061,10.5860555 7.56578947,14.8026316 L32.9605263,14.8026316 C32.6314352,10.5860555 30.1967868,6.82026801 26.4868421,4.78947368" id="Shape" fill="#3DDC84"></path>
            <path d="M36.8026316,22.6052632 L35.1315789,22.6052632 C35.0153085,22.6052632 34.9210522,22.699519 34.9210522,22.8157895 L34.9210522,49.1973684 C34.920835,49.3086884 35.0073185,49.4009374 35.1184211,49.4078947 L36.8421053,49.4078947 C38.8571644,49.4006463 40.4868421,47.7650721 40.4868421,45.75 L40.4868421,18.9473684 C40.4868421,19.9220792 40.0978728,20.8564894 39.4061823,21.5432393 C38.7144918,22.2299891 37.7773171,22.6122755 36.8026316,22.6052632 L36.8026316,22.6052632 Z" id="Path" fill="#073042"></path>
        </g>
    </g>
</svg>