<?xml version="1.0" encoding="UTF-8"?>
<svg width="50px" height="50px" viewBox="0 0 50 50" version="1.1" xmlns="http://www.w3.org/2000/svg" xmlns:xlink="http://www.w3.org/1999/xlink">
    <title>barba-js</title>
    <g id="barba-js" stroke="none" stroke-width="1" fill="none" fill-rule="evenodd">
        <circle id="Oval" fill="#2E5BDC" cx="25" cy="25" r="25"></circle>
        <g id="Group" transform="translate(17.000000, 9.000000)" fill-rule="nonzero" stroke="#FFFFFF" stroke-width="2">
            <path d="M9.75609756,12.195122 C4.36829268,12.195122 -3.55271368e-15,16.5731707 -3.55271368e-15,21.9512195 C-3.55271368e-15,27.3390244 4.37804878,31.7073171 9.75609756,31.7073171 L-3.55271368e-15,31.7073171 L-3.55271368e-15,1.95399252e-14 L9.75609756,1.95399252e-14 L9.75609756,12.195122 Z" id="ca"></path>
            <path d="M-5.32907052e-15,21.9512195 C-5.32907052e-15,27.3390244 4.37804878,31.7073171 9.75609756,31.7073171 L9.75609756,31.7073171 C15.1439024,31.7073171 19.5121951,27.3292683 19.5121951,21.9512195 L19.5121951,21.9512195 C19.5121951,16.5634146 15.1341463,12.195122 9.75609756,12.195122 L9.75609756,12.195122 C4.36829268,12.195122 -5.32907052e-15,16.5731707 -5.32907052e-15,21.9512195 L-5.32907052e-15,21.9512195 Z" id="Path"></path>
        </g>
    </g>
</svg>