<?xml version="1.0" encoding="UTF-8"?>
<svg width="50px" height="50px" viewBox="0 0 50 50" version="1.1" xmlns="http://www.w3.org/2000/svg" xmlns:xlink="http://www.w3.org/1999/xlink">
    <title>greensock</title>
    <g id="greensock" stroke="none" stroke-width="1" fill="none" fill-rule="evenodd">
        <g id="Group" transform="translate(0.000000, 0.100000)" fill-rule="nonzero">
            <path d="M6.81820728,21.8207283 C5.36316527,22.5051821 1.51204482,25.5862745 0.770308123,26.4991597 C2.22044605e-16,27.4120448 -0.228151261,25.9857143 0.570588235,23.6179272 C1.19803922,21.7065826 2.79579832,19.1105042 5.47731092,16.8854342 C7.04621849,15.6016807 10.4981793,13.747479 12.6091036,12.6633053 C13.0371148,12.435014 18.5714286,10.0957983 23.5067227,8.92619048 C23.9347339,8.81204482 22.9932773,9.63935574 22.8505602,10.0957983 C22.1088235,12.2638655 7.30294118,21.5638655 7.30294118,21.5638655 L6.81820728,21.8207283 Z" id="Path" fill="#000000"></path>
            <path d="M27.6717087,47.9803922 C27.9284314,49.5208683 27.7002801,49.635014 26.1028011,49.8347339 C24.5051821,50.0344538 23.3355742,49.4352941 22.9077031,49.0359944 C22.4796919,48.6364146 22.3942577,47.7522409 22.8221289,46.9535014 C23.0789916,46.439916 23.3357143,46.2687675 23.4784314,45.6411765 C23.6210084,45.0421569 23.7351541,44.8994398 23.8491597,44.6712885 C23.9631653,44.4714286 23.9918768,44.2717087 24.0203081,42.8739496 C24.0488796,41.4761905 24.0203081,38.8515406 24.1630252,37.7390756 C24.3057423,36.5980392 29.2410364,38.252521 29.2410364,38.252521 C29.2410364,38.252521 28.0712885,41.1623249 27.757563,41.8754902 C27.4436975,42.5887955 27.4722689,43.9579832 27.4722689,44.2432773 C27.4722689,44.5285714 27.3582633,45.0990196 27.272549,45.127591 C27.1869748,45.1560224 27.5578431,45.8977591 27.3865546,46.3257703 C27.272409,46.7252101 27.6432773,47.7522409 27.6717087,47.9803922 Z" id="Path" fill="#000000"></path>
            <path d="M29.5546218,4.36176471 C29.3833333,3.27773109 29.5546218,1.13795518 29.7827731,0.795798319 C30.4960784,-0.174229692 34.2616246,-0.288235294 35.0605042,0.85280112 C35.4028011,1.3662465 35.3742297,2.56442577 35.3172269,3.33473389 C35.2602241,4.10490196 35.0605042,5.75952381 35.0319328,6.30168067 C35.0035014,6.70112045 30.8669468,7.32857143 29.9540616,6.24453782 C29.6971989,5.95938375 29.5546218,4.36176471 29.5546218,4.36176471 Z" id="Path" fill="#000000"></path>
            <path d="M37.9417367,45.2131653 C39.6819328,46.4684874 41.0226891,46.6966387 41.9070028,47.1530812 C42.7913165,47.6096639 42.5631653,48.4939776 41.0796919,48.7507003 C39.8815126,48.9788515 37.9987395,48.522409 36.7435574,48.522409 C35.4883754,48.522409 32.692577,48.6651261 31.9508403,48.1516807 C31.095098,47.5526611 31.4658263,46.439916 31.4658263,46.439916 C31.6941176,45.812465 32.2645658,44.4144258 32.0934174,43.2733894 C31.9222689,42.1323529 31.6939776,41.5047619 31.2661064,40.4491597 C30.8382353,39.3936975 30.5245098,36.7977591 30.9239496,36.655042 C31.3233894,36.5123249 31.2091036,36.655042 31.7226891,36.7690476 C32.2361345,36.8830532 32.8067227,37.0543417 33.9193277,37.0543417 C35.0319328,37.0543417 36.2585434,36.8830532 36.6865546,36.797619 C37.1144258,36.7120448 37.4567227,36.6263305 37.3140056,37.5107843 C37.1714286,38.395098 36.7435574,40.0497199 36.714986,41.3334734 C36.6865546,42.6172269 36.6865546,44.1007003 36.7721289,44.357423 C36.857563,44.6141457 37.4852941,44.8994398 37.9417367,45.2131653 Z" id="Path" fill="#000000"></path>
            <g transform="translate(0.700280, 0.420168)" id="Path">
                <g transform="translate(0.000000, 6.622689)" fill="#88CE02">
                    <path d="M31.1365546,0.171708683 C27.9985994,2.88193277 21.9221289,3.62352941 12.907563,7.10392157 C10.5967787,7.98823529 4.43487395,10.6413165 2.95140056,13.4085434 C7.94369748,10.5273109 9.79803922,14.492577 10.1973389,18.5719888 C10.5680672,22.3946779 12.4795518,24.3917367 17.3862745,24.277451 C22.4357143,24.1634454 23.9761905,27.1016807 25.3739496,30.5536415 C28.0840336,17.3452381 32.4203081,14.7778711 35.2158263,12.5242297 C41.1497199,7.70294118 33.8466387,-0.798319328 31.1365546,0.171708683 Z"></path>
                    <path d="M31.1365546,0.171708683 C23.6053221,2.79621849 16.1595238,3.45238095 7.40168067,8.84411765 C5.31918768,10.1278711 0.925910364,13.037535 0.0700280112,18.6005602 C3.26498599,15.0630252 10.6536415,10.6128852 19.6969188,7.78865546 C24.2613445,6.36218487 27.5991597,5.42086835 31.65,3.85182073 C31.3648459,2.02591036 31.3648459,1.3127451 31.1365546,0.171708683 Z"></path>
                </g>
                <path d="M40.7502801,22.427451 C40.7502801,22.427451 40.2082633,24.2817927 39.1242297,24.8809524 C39.1242297,24.8809524 38.3254902,25.1662465 36.7280112,24.2819328 C36.2715686,24.0252101 35.9292717,23.1408964 35.9577031,22.8554622 C35.9862745,22.1707283 36.4141457,21.8570028 36.4141457,21.8570028 C36.4141457,21.8570028 36.8707283,21.0866947 37.412605,21.1152661 C37.9547619,21.1436975 38.8676471,21.2292717 39.1529412,20.972549 C39.4095238,20.6872549 40.807423,21.4859944 40.7502801,22.427451 Z" fill="#000000"></path>
                <path d="M29.1110644,4.48361345 C29.1110644,4.48361345 28.9970588,5.93865546 28.7973389,6.85140056 C28.7687675,7.02268908 27.9130252,7.10812325 27.2852941,7.36498599 C28.4834734,10.7882353 35.7009804,10.7596639 36.642437,9.07661064 C36.1859944,8.76288515 35.2731092,8.27787115 34.8452381,8.10672269 C34.4172269,7.93543417 34.4457983,7.9640056 34.4172269,7.16526611 C34.3887955,6.36638655 34.3316527,4.88305322 34.2745098,4.48361345 C34.217507,4.08417367 29.7956583,4.08417367 29.1110644,4.48361345 Z" fill="#000000"></path>
                <path d="M29.3963585,4.48361345 C29.3963585,4.48361345 29.3963585,5.31092437 29.3107843,6.10966387 C29.2823529,6.48053221 29.2537815,6.70868347 29.1967787,6.99397759 C29.1682073,7.16526611 30.1666667,7.84971989 30.4519608,9.36176471 C31.8212885,12.4141457 34.9879552,10.9022409 36.3001401,9.44733894 C35.8436975,9.13347339 35.1019608,8.70560224 34.2462185,8.36330532 C33.8182073,8.19201681 34.0179272,7.82128852 33.9894958,7.02254902 C33.9609244,6.22380952 33.8467787,5.05406162 33.7897759,4.62619048 C33.732493,4.19831933 30.0810924,4.08417367 29.3963585,4.48361345 Z" fill="#EFEFEF"></path>
                <path d="M29.1110644,4.48361345 C29.1110644,4.48361345 29.082493,4.99719888 28.9970588,5.59621849 C29.3677871,5.96694678 29.8528011,6.48053221 30.2238095,6.79439776 C30.4805322,7.02268908 31.1079832,6.99411765 31.6787115,6.99411765 C32.1921569,6.99411765 32.6485994,7.05112045 32.8483193,6.93711485 C33.304902,6.70882353 33.9609244,6.13837535 34.3317927,5.71036415 C34.3033613,5.19691877 34.2747899,4.71190476 34.2463585,4.48361345 C34.217507,4.08417367 29.7956583,4.08417367 29.1110644,4.48361345 Z" fill="#000000"></path>
                <path d="M31.7071429,6.65168067 C31.3647059,6.65168067 30.9652661,6.6232493 30.6515406,6.56610644 C30.5088235,6.53767507 30.3662465,6.45210084 30.2521008,6.39495798 C30.052381,6.2522409 29.8526611,6.08123249 29.6246499,5.90994398 C29.1680672,5.56764706 29.1396359,5.36792717 29.1396359,5.282493 C29.3393557,3.48515406 29.082493,1.9732493 29.082493,1.9732493 C29.082493,1.9732493 28.8827731,1.20294118 29.9668067,1.00322129 C31.0508403,0.803501401 31.7070028,0.775070028 31.7070028,0.775070028 C31.7070028,0.775070028 32.3917367,0.775070028 33.4471989,1.00322129 C34.5312325,1.20294118 34.3315126,1.9732493 34.3315126,1.9732493 C34.3315126,1.9732493 34.0747899,3.48515406 34.2745098,5.282493 C34.2745098,5.36792717 34.2460784,5.56764706 33.7894958,5.90994398 C33.390056,6.1952381 33.0763305,6.50896359 32.762605,6.56610644 C32.4487395,6.6232493 32.0492997,6.65168067 31.7071429,6.65168067 Z" fill="#000000"></path>
                <path d="M31.7071429,0.0333333333 C29.8243697,0.0333333333 29.4533613,0.546778711 28.9113445,1.11736695 C28.7973389,1.25994398 28.8827731,2.11582633 29.0826331,3.94159664 L29.3393557,3.94159664 C29.3393557,3.94159664 29.1680672,3.4280112 29.1966387,2.8289916 C29.2252101,2.22997199 29.3393557,2.25854342 29.2536415,2.11582633 C29.1396359,1.94453782 28.9113445,1.6592437 29.42493,1.37408964 C29.9383754,1.08879552 30.7371148,1.6022409 31.7071429,1.63081232 C32.6770308,1.6022409 33.5043417,1.08879552 34.0177871,1.37408964 C34.5312325,1.6592437 34.3030812,1.94453782 34.1890756,2.11582633 C34.07493,2.28697479 34.217507,2.22983193 34.2460784,2.8289916 C34.2745098,3.4280112 34.1033613,3.94159664 34.1033613,3.94159664 L34.360084,3.94159664 C34.5312325,2.11582633 34.6453782,1.31708683 34.5598039,1.17436975 C34.0747899,0.546778711 33.589916,0.0617647059 31.7071429,0.0333333333 Z" fill="#000000"></path>
                <path d="M40.7502801,22.5130252 C40.7502801,22.5130252 40.2082633,24.2532213 39.1528011,24.8522409 C38.9245098,24.7382353 38.9530812,24.5670868 38.7533613,24.3102241 C38.6962185,24.2247899 38.4964986,24.167507 38.4110644,24.0820728 C38.3254902,23.9964986 38.3540616,23.8537815 38.2113445,23.7397759 C38.0971989,23.6256303 38.0116246,23.7112045 37.897479,23.6256303 C37.7834734,23.5116246 37.7547619,23.3689076 37.6693277,23.2834734 C37.6121849,23.2263305 37.3840336,23.1978992 37.3270308,23.1407563 C37.1843137,22.9980392 35.9292717,22.7413165 35.9862745,22.4560224 C36.1002801,22.0280112 36.3285714,21.7142857 36.3285714,21.7142857 C36.3285714,21.7142857 36.8705882,20.9155462 37.412465,20.9439776 C37.9544818,20.972549 38.4680672,21.0866947 38.7533613,20.829972 C39.0672269,20.5445378 40.8359944,21.6001401 40.7502801,22.5130252 Z" fill="#000000"></path>
                <path d="M37.0417367,9.90392157 C37.0417367,9.90392157 38.8389356,9.47591036 40.0656863,10.6456583 C41.292437,11.8438375 41.2067227,13.3271709 40.8359944,14.240056 C41.1497199,14.6109244 41.7203081,15.6378151 41.292437,16.8645658 C43.1752101,18.4620448 42.3478992,20.9155462 40.6648459,22.5415966 C40.6648459,22.5415966 40.2654062,21.0581232 38.6679272,20.972549 C38.72493,20.4021008 37.1844538,19.9455182 37.897619,18.4620448 C36.8135854,18.2053221 36.8421569,17.4635854 36.6710084,16.5508403 C36.5282913,15.6378151 37.0417367,9.90392157 37.0417367,9.90392157 Z" fill="#000000"></path>
                <path d="M36.3855742,10.7026611 C36.3855742,10.7026611 38.4680672,9.64719888 39.6948179,10.8453782 C40.9214286,12.0435574 40.5789916,13.3557423 40.2082633,14.2686275 C40.5219888,14.6393557 41.2637255,15.695098 40.8072829,16.9501401 C40.7217087,17.2354342 40.0941176,17.2354342 39.637535,17.9771709 C40.7785714,17.3208683 41.4918768,17.4921569 41.7485994,18.3193277 C42.1480392,19.6030812 41.2635854,21.1435574 40.4934174,21.9994398 C40.4934174,21.9708683 40.4648459,21.9422969 40.4648459,21.9138655 C40.3508403,22.3418768 40.2081232,23.1690476 39.352381,24.0819328 C38.9243697,24.5383754 38.5820728,24.4813725 38.0970588,24.3672269 C37.5266106,24.2245098 37.3268908,23.9676471 36.5281513,23.539916 C36.0717087,23.2831933 36.3284314,22.9693277 36.3284314,22.712605 C36.3284314,22.6556022 36.3854342,22.569888 36.4711485,22.4558824 C36.5281513,22.3131653 36.6992997,22.0851541 36.9560224,21.8282913 C36.9560224,21.8282913 37.3268908,21.3148459 37.8690476,21.3432773 C38.4110644,21.3718487 38.9815126,21.2578431 39.1242297,21.1151261 L39.1242297,21.1151261 C39.1242297,20.1166667 37.9831933,20.0880952 38.382493,18.3764706 C38.4110644,18.2908964 38.5537815,18.1481793 39.010084,18.0911765 C38.3253501,17.9484594 38.0116246,17.919888 37.5266106,17.4635854 C37.1843137,17.1498599 36.927591,16.7504202 36.8418768,16.2369748 C36.6708683,15.3526611 36.3855742,10.7026611 36.3855742,10.7026611 Z" fill="#EFEFEF"></path>
                <path d="M30.3662465,8.90546218 C30.195098,8.67717087 29.3107843,7.53613445 27.627591,7.07969188 C27.142577,6.93697479 26.8288515,7.33641457 26.3439776,7.62170868 C26.2012605,7.53613445 25.5736695,7.25084034 25.2313725,7.45042017 C24.8890756,7.65 24.6609244,7.84985994 24.3184874,7.99243697 C24.1471989,7.90686275 23.6908964,7.90686275 23.320028,8.04943978 C22.9491597,8.16358543 22.3785714,8.42030812 21.8365546,9.16204482 C21.4942577,10.3887955 27.8843137,9.47577031 27.8843137,9.47577031 L30.3662465,8.90546218 Z" fill="#000000"></path>
                <path d="M30.4233894,8.90546218 C29.5103641,8.59159664 29.6530812,7.53613445 27.627591,7.36498599 C27.2281513,7.33641457 26.9714286,7.65014006 26.6861345,7.84985994 C26.8288515,7.99257703 26.9714286,8.22072829 27.0570028,8.44887955 C26.8002801,8.16372549 26.3438375,7.79271709 25.8872549,7.70714286 C25.4593838,7.62170868 25.1740896,7.93543417 24.7176471,8.16372549 C24.8030812,8.24915966 24.8887955,8.39187675 25.0028011,8.56316527 C24.6033613,8.30644258 24.3182073,8.22086835 23.7761905,8.42044818 C23.4053221,8.53445378 22.6921569,8.84831933 22.1501401,9.61862745 C21.8078431,10.8453782 27.9127451,9.47591036 27.9127451,9.47591036 L30.4233894,8.90546218 Z" fill="#88CE02"></path>
                <path d="M35.7865546,9.36190476 C35.7865546,9.36190476 35.7865546,9.04803922 35.7579832,8.76288515 C35.7579832,8.70588235 35.5298319,8.56316527 35.5298319,8.50616246 L35.4728291,8.44901961 C35.4728291,8.44901961 35.9292717,8.19229692 36.2715686,8.33501401 C36.6422969,8.44901961 36.8420168,8.93403361 36.8420168,8.93403361 C37.4981793,8.70588235 37.5551821,8.96260504 37.8690476,9.30490196 C38.5537815,9.16218487 38.6392157,9.41890756 39.0672269,10.0466387 C39.0672269,10.0466387 38.5537815,9.96106443 37.5553221,10.1320728 C36.5852941,10.2746499 35.7865546,9.33333333 35.7865546,9.36190476 Z" fill="#000000"></path>
                <path d="M35.672409,9.21918768 C35.672409,9.21918768 35.8435574,9.07647059 35.7864146,9.04789916 C36.1001401,8.8767507 36.5281513,8.67717087 36.7278711,9.21918768 C37.3840336,8.99089636 37.4696078,9.3047619 37.7833333,9.64719888 C38.5820728,9.27633053 38.6390756,9.73263305 38.6962185,9.93235294 C38.4394958,9.93235294 38.0687675,9.96092437 37.5551821,10.0179272 C36.5852941,10.1606443 35.6438375,9.19061625 35.672409,9.21918768 Z" fill="#88CE02"></path>
                <path d="M25.9731092,8.50602241 C25.9731092,8.50602241 27.5991597,9.07647059 28.9684874,8.99089636 C30.3378151,8.87689076 32.6770308,8.7627451 33.9322129,9.50448179 C33.9322129,9.50448179 35.2159664,9.04789916 36.4141457,9.36176471 C37.612465,9.6754902 39.8089636,11.7295518 39.1529412,13.897619 C39.0957983,14.0403361 38.72493,14.2684874 38.2970588,14.4112045 C38.2970588,14.4112045 38.5253501,15.3810924 38.1259104,16.1798319 C37.7264706,16.9501401 36.8421569,18.4336134 36.8135854,20.487535 L36.8135854,20.487535 C36.7851541,20.8298319 36.7281513,21.5429972 36.6710084,21.8852941 C34.4457983,21.7998599 31.022549,20.972409 27.6563025,21.0295518 C27.6847339,20.6588235 27.7133053,20.4305322 27.7418768,20.0596639 L27.8273109,20.0596639 C27.6561625,19.1182073 27.5991597,18.6331933 27.4278711,17.920028 C26.3438375,17.2354342 25.2026611,16.4366947 24.2329132,14.9246499 C23.2914566,13.412605 25.9731092,8.50602241 25.9731092,8.50602241 Z" fill="#000000"></path>
                <path d="M36.9847339,23.9109244 C36.9847339,23.9109244 38.7535014,30.2441176 36.6710084,32.8971989 C36.6710084,32.8971989 36.9847339,34.1238095 36.2715686,35.4361345 C36.157423,36.0065826 36.0147059,36.5201681 35.9292717,37.0906162 C35.5584034,39.4584034 34.9306723,40.4568627 34.7595238,44.2509804 L33.0477591,44.222549 C33.0477591,44.222549 32.8480392,41.4838936 32.2490196,40.0289916 C31.9068627,39.2018207 30.5658263,38.0890756 30.6231092,36.9766106 C30.680112,36.1207283 30.8512605,35.407563 32.3063025,34.2663866 C32.4203081,32.6119048 30.7656863,31.0427171 31.022549,24.8808123 L36.9847339,23.9109244 Z" fill="#000000"></path>
                <path d="M36.4712885,23.6540616 C36.9277311,26.5638655 37.9831933,30.8715686 36.0718487,32.982493 C36.1572829,33.3819328 36.2144258,33.952521 36.1002801,34.6085434 C36.0432773,34.9508403 35.9291317,35.3217087 35.7865546,35.7210084 C35.5012605,36.4057423 35.3871148,37.4042017 35.3015406,38.0032213 C34.9306723,40.3710084 34.9306723,40.4852941 34.7595238,44.2794118 L33.0477591,44.2508403 C33.0477591,44.2508403 32.8480392,41.5121849 32.2490196,40.057423 C31.9068627,39.230112 31.1935574,38.5169468 31.1365546,37.4043417 C31.0795518,36.5485994 31.6785714,34.8369748 33.105042,34.8939776 C33.0194678,31.4421569 31.4218487,32.1267507 30.9939776,24.9378151 L36.4712885,23.6540616 Z" fill="#EFEFEF"></path>
                <path d="M25.9731092,8.50602241 C25.9731092,8.50602241 26.6007003,8.7057423 27.2852941,8.7627451 C27.970028,8.8197479 28.7117647,8.7627451 29.3677871,8.73417367 C30.7371148,8.62016807 32.6770308,8.47745098 33.9607843,9.21918768 C33.9607843,9.21918768 34.6739496,8.99089636 35.4442577,9.04789916 C35.7865546,9.07647059 36.1289916,9.36176471 36.5282913,9.47591036 C37.7834734,9.78963585 38.9816527,11.8721289 38.4394958,13.755042 C38.382493,13.8977591 37.9830532,13.755042 37.5266106,13.8977591 C37.6120448,14.2971989 37.6693277,15.210084 37.2127451,16.179972 C36.7278711,17.15 36.1002801,18.4051821 36.2142857,20.8015406 C33.2189076,20.6588235 31.8781513,20.4592437 28.9112045,20.3165266 C28.6544818,19.2609244 28.4831933,18.2054622 28.4547619,17.6634454 C28.8542017,17.4637255 29.0822129,17.2927171 29.3962185,16.9502801 C28.5404762,17.0929972 28.1980392,17.0358543 27.6844538,16.7505602 C27.1710084,16.4652661 26.2581232,15.552381 25.8016807,14.9533613 C25.7446779,14.8962185 25.4309524,15.837535 24.7177871,15.8662465 C24.4609244,15.4953782 25.544958,14.4397759 25.3452381,14.0404762 C24.6322129,12.5854342 25.9731092,8.50602241 25.9731092,8.50602241 Z" fill="#EFEFEF"></path>
                <path d="M36.6992997,21.2862745 C36.6992997,21.2862745 36.7563025,22.3133053 36.7563025,22.570028 C36.7563025,22.8553221 36.9845938,23.7110644 37.0130252,24.1105042 C36.6992997,24.652521 35.329972,25.8792717 32.8480392,26.3357143 C30.3946779,26.8491597 27.142577,22.9980392 27.142577,22.9980392 C27.2281513,22.6271709 27.5134454,21.5429972 27.7131653,20.972549 C27.7417367,20.9155462 27.7987395,20.7728291 27.7987395,20.7158263 C28.0556022,20.344958 36.6992997,21.2862745 36.6992997,21.2862745 Z" fill="#000000"></path>
                <path d="M36.0718487,21.3719888 C36.0718487,22.0851541 36.1858543,22.5987395 36.2715686,23.0551821 C36.4141457,23.882493 36.6422969,24.4245098 36.6422969,24.9665266 C36.6422969,26.6210084 34.4742297,26.3357143 32.6483193,26.3928571 C30.194958,26.9064426 28.112465,23.0551821 28.112465,23.0551821 C28.2836134,22.3990196 28.3977591,21.657423 28.6544818,21.0296919 L28.6544818,21.0296919 C28.6829132,20.687395 28.740056,20.2595238 28.7684874,20.0598039 C32.2488796,20.0598039 34.7022409,20.2595238 36.1287115,20.4019608 C36.1858543,20.7158263 36.1288515,21.2578431 36.0718487,21.3719888 L36.0718487,21.3719888 Z" fill="#EFEFEF"></path>
                <path d="M33.3330532,25.0519608 C33.3330532,25.0519608 31.8211485,21.6857143 27.2851541,22.6843137 C26.2012605,25.7366947 24.7462185,29.2456583 25.6876751,33.0397759 C24.7462185,34.3235294 23.6621849,35.0368347 23.6621849,37.4044818 C23.6621849,39.7722689 23.7763305,40.1717087 23.7763305,40.1717087 L27.1140056,40.3429972 C27.1140056,40.3429972 28.1980392,38.9452381 28.6259104,37.4331933 C28.740056,37.0051821 28.8542017,36.235014 28.7686275,35.3507003 C28.8826331,35.1795518 29.3676471,34.7802521 29.4247899,34.009944 C29.4247899,34.009944 31.0508403,33.1542017 31.9922969,31.0717087 C32.8767507,29.1885154 32.6484594,27.562465 33.3330532,25.0519608 Z" fill="#000000"></path>
                <path d="M33.3330532,25.0519608 C33.247619,24.7382353 32.1064426,21.6572829 27.8843137,22.570028 C25.402521,29.1885154 26.3154062,31.9271709 26.6861345,33.1252101 C25.0029412,35.2647059 24.2327731,35.7211485 24.5752101,40.057423 L26.8004202,40.057423 C27.8273109,38.4313725 28.0556022,37.8322129 28.112605,35.6927171 C28.112605,35.6071429 27.7988796,35.8638655 27.5705882,36.1491597 C27.7418768,35.2648459 28.2267507,35.0936975 28.597619,34.5516807 C28.7687675,34.3233894 28.9113445,33.9810924 28.9113445,33.5246499 C30.9082633,32.1838936 31.65,30.5007003 32.0778711,28.7605042 C32.4203081,27.562465 32.8196078,25.5939776 33.3330532,25.0519608 Z" fill="#EFEFEF"></path>
                <path d="M26.2868347,20.4591036 C26.2868347,20.4591036 27.0571429,20.487535 27.7418768,20.7158263 C28.3980392,20.9439776 28.3980392,21.0865546 28.6547619,21.3719888 C28.9114846,21.657423 29.5390756,22.0851541 29.42507,22.5130252 C29.3679272,22.7413165 29.2253501,22.7983193 29.0256303,22.9980392 C28.940056,23.0836134 28.3123249,23.7682073 28.1697479,23.8537815 C28.0841737,23.9107843 27.970028,23.9964986 27.8844538,24.0535014 C27.7990196,24.1105042 27.5422969,24.2817927 27.4565826,24.3387955 C27.1712885,24.4815126 26.9715686,24.5670868 26.6578431,24.5385154 C26.6578431,24.5385154 25.9446779,24.509944 25.4880952,24.02507 C25.4880952,24.02507 25.4310924,23.7967787 25.5452381,23.6827731 C25.5452381,23.6827731 24.9460784,23.1691877 24.77493,22.8268908 C24.6036415,22.4847339 24.6036415,21.9997199 24.7179272,21.7429972 C24.77493,21.4859944 25.887395,20.7728291 26.2868347,20.4591036 Z" fill="#000000"></path>
                <path d="M27.0001401,48.2163866 L26.9145658,48.9296919 C26.9145658,48.9296919 26.6578431,49.2434174 24.7464986,49.214986 C22.8065826,49.1864146 22.2931373,48.587395 22.1219888,48.2735294 L22.0079832,47.5317927 C22.0079832,47.5317927 22.3788515,46.9897759 22.4644258,46.9897759 C23.0920168,47.0467787 25.2316527,47.9026611 26.7151261,48.1308123 C26.857423,48.1308123 26.8858543,48.1878151 27.0001401,48.2163866 Z" fill="#000000"></path>
                <path d="M31.1365546,46.7614846 C31.1365546,47.0752101 31.1079832,47.0752101 31.1079832,47.3890756 C31.4502801,47.6457983 32.3063025,47.7885154 33.9322129,47.7598039 C36.3,47.7028011 38.4966387,48.4731092 41.1781513,48.0165266 L41.2067227,47.5030812 L40.95,47.4746499 L31.4502801,46.7043417 L31.1365546,46.7614846 Z" fill="#000000"></path>
                <path d="M33.2190476,47.759944 C33.4473389,47.759944 33.6754902,47.759944 33.9322129,47.759944 C35.4728291,47.7029412 36.9277311,48.0452381 38.4966387,48.1308123 C39.3239496,48.1022409 40.3509804,47.902521 40.2654062,47.3035014 L32.1635854,46.6187675 C31.6785714,47.1607843 32.0492997,47.6172269 33.2190476,47.759944 Z" fill="#000000"></path>
                <path d="M23.9190476,35.7498599 C24.1757703,35.9210084 25.9159664,36.9480392 28.7401961,36.8053221 C28.6830532,37.3473389 28.7116246,38.4029412 27.4564426,40.2571429 C26.8288515,41.170028 26.2866947,42.7676471 26.1726891,44.7931373 C26.2012605,45.2495798 26.4579832,45.6488796 26.1156863,46.2480392 C26.2296919,46.6187675 26.6861345,47.3605042 26.9144258,47.8169468 C27.142577,48.2735294 27.2567227,48.7869748 25.7446779,48.8155462 C24.2042017,48.8439776 21.7222689,48.6728291 22.0647059,47.4747899 C22.2359944,46.8471989 22.7208683,46.1910364 22.7780112,45.9341737 C22.835014,45.677451 22.835014,44.9072829 23.319888,44.3936975 C23.7478992,42.9673669 23.6051821,41.5980392 23.5197479,40.3142857 C23.3770308,38.9733894 23.3484594,36.8338936 23.9190476,35.7498599 Z" fill="#000000"></path>
                <path d="M26.5721289,12.4998599 C28.597619,9.78963585 26.8858543,7.62170868 23.6338936,8.27773109 C22.3215686,8.53445378 21.0093838,9.44747899 20.9236695,11.1019608 C20.4957983,11.1589636 19.5259104,11.2159664 19.0408964,12.9847339 C18.6701681,14.3540616 18.4704482,14.6107843 17.8141457,15.2953782 C17.3862745,15.7803922 17.8427171,16.7788515 18.1564426,17.4921569 C19.2120448,19.9455182 22.4641457,20.1736695 24.6607843,22.0280112 C25.402521,21.8282913 26.1726891,21.0011204 26.4009804,20.4591036 C24.5466387,18.2623249 24.9459384,17.4065826 24.2042017,16.2655462 C25.0030812,15.980112 26.8288515,14.8676471 26.5721289,12.4998599 Z" fill="#000000"></path>
                <path d="M26.1726891,12.3287115 C26.2866947,12.157423 26.4864146,11.7866947 26.5721289,11.6439776 C26.6007003,11.6154062 26.9144258,12.157423 26.9429972,12.1289916 C27.7131653,10.8736695 27.9128852,9.04789916 27.0284314,8.8767507 C26.8287115,8.84817927 26.4579832,8.7627451 26.1441176,8.64845938 C25.5736695,8.4487395 25.0602241,8.4487395 24.1471989,8.62002801 C22.8920168,8.84817927 21.6368347,9.76106443 21.6368347,11.0733894 C21.6368347,11.1589636 22.5210084,11.4156863 22.7778711,12.4712885 C22.3498599,11.8721289 21.6081232,11.2159664 20.7238095,11.7865546 C19.7823529,12.3855742 20.2673669,13.754902 19.0121849,15.1812325 C18.5841737,15.6662465 18.6413165,16.2368347 19.097619,17.3778711 C19.8393557,19.1752101 23.3483193,20.145098 25.2596639,21.8567227 C25.7161064,21.6570028 26.0298319,21.2005602 26.2581232,20.8582633 C24.9743697,19.517507 24.4607843,18.2621849 24.090056,17.3492997 C23.6336134,16.2938375 23.120028,15.6948179 22.1215686,14.8957983 C22.6351541,15.0955182 23.0345938,15.2952381 23.262605,15.4663866 C23.5193277,15.637535 23.8901961,15.6661064 24.2326331,15.5519608 C25.4595238,15.1243697 26.1156863,13.412605 26.1726891,12.3287115 Z" fill="#EFEFEF"></path>
                <path d="M38.5822129,12.7851541 C38.4966387,13.8691877 37.6978992,13.3271709 37.270028,13.127451 C36.4141457,12.7565826 35.5582633,12.4998599 34.5598039,12.4998599 C33.5613445,12.4998599 32.277591,12.5854342 31.1651261,12.8707283 C29.6246499,13.2985994 29.1680672,13.2701681 28.4834734,12.9277311 C27.7988796,12.5568627 26.6008403,11.6439776 26.6008403,11.6439776 C26.6008403,11.6439776 26.5722689,11.9292717 26.857563,12.3001401 C27.2282913,12.7565826 28.0557423,13.3271709 29.1682073,13.6978992 C29.7102241,13.8691877 30.1382353,13.754902 30.6232493,13.6408964 C33.1621849,13.0133053 35.8436975,12.8991597 38.0973389,14.2684874 C38.2114846,14.3254902 38.6109244,14.1543417 38.7820728,13.897619 C39.010084,13.5268908 38.5822129,12.7851541 38.5822129,12.7851541 Z" fill="#000000"></path>
                <path d="M25.6022409,23.6540616 C25.8303922,23.7967787 26.1156863,23.8823529 26.4294118,24.1390756 C26.4294118,24.1390756 26.1726891,24.1390756 26.0586835,24.02507 C25.9159664,23.9394958 25.6306723,23.6827731 25.6022409,23.6540616 L25.6022409,23.6540616 Z" fill="#001423"></path>
                <path d="M33.8466387,1.03179272 C33.7610644,0.775070028 33.1333333,0.318487395 31.6785714,0.318487395 C30.1095238,0.318487395 29.6530812,0.803501401 29.6246499,1.06022409 C29.6246499,1.14579832 29.5105042,2.05882353 29.4819328,2.42955182 C29.4819328,2.42955182 29.4819328,2.8859944 29.5103641,3.57058824 C29.5389356,4.02703081 29.6530812,4.2837535 29.710084,4.88291317 C29.7670868,5.51036415 29.9383754,5.90980392 30.2521008,6.42338936 C30.3948179,6.50882353 30.5088235,6.59453782 30.6515406,6.62310924 C31.2221289,6.73711485 32.2205882,6.76568627 32.762605,6.62310924 C33.0763305,6.53753501 33.4757703,5.99551821 33.5613445,5.5105042 C33.6753501,4.91148459 33.7894958,4.48347339 33.8180672,4.1127451 C33.87507,3.74201681 33.9036415,2.91456583 33.9320728,2.68627451 C34.0177871,2.05882353 33.87507,1.08879552 33.8466387,1.03179272 Z" fill="#EFEFEF"></path>
                <path d="M30.8512605,36.2918768 C30.8512605,36.2918768 32.3633053,36.9480392 36.1004202,36.377451 C36.1004202,36.377451 35.044958,41.6836134 35.529972,44.3365546 C35.529972,44.3365546 36.0148459,45.0212885 39.6093838,46.3334734 C39.6093838,46.3334734 41.2068627,46.7329132 41.1498599,47.5317927 C41.1498599,47.5317927 41.2068627,47.7029412 39.2670868,47.6457983 C37.3273109,47.5886555 35.5014006,47.2463585 34.2176471,47.2463585 C32.9338936,47.2463585 31.5645658,47.3033613 31.3364146,46.9326331 C31.0796919,46.5903361 31.3934174,45.7058824 31.7642857,45.1922969 C32.1638655,44.6504202 32.0495798,44.2508403 32.0211485,43.2810924 C31.9352941,40.7421569 29.9953782,38.1176471 30.8512605,36.2918768 Z" fill="#000000"></path>
                <path d="M30.537395,36.7768908 C30.3376751,37.0621849 30.5658263,38.1460784 30.8511204,39.2016807 C31.1364146,40.2571429 31.7641457,40.8848739 31.9067227,42.62493 C32.0492997,44.3365546 32.0778711,44.5648459 31.5928571,45.5631653 C31.1078431,46.5614846 30.9652661,47.4745098 32.6483193,47.5030812 C34.3313725,47.5316527 35.2443978,47.4745098 36.9560224,47.7313725 C38.6677871,47.9880952 39.2668067,48.0736695 40.2082633,47.9310924 C41.1497199,47.7885154 41.3492997,47.4745098 40.95,47.1893557 C40.5505602,46.9040616 38.8959384,46.5903361 38.1827731,46.0196078 C37.4980392,45.5061625 35.5582633,44.6502801 35.5298319,44.4221289 C35.4442577,43.6518207 35.4156863,40.8561625 35.5582633,39.9432773 C35.7009804,39.0302521 35.9005602,37.7180672 35.9577031,37.3757703 C36.0148459,37.0334734 36.3,36.6910364 35.814986,36.8051821 C35.330112,36.9191877 33.5043417,37.1760504 32.135014,37.0904762 C30.7656863,37.005042 30.6231092,36.6911765 30.537395,36.7768908 Z" fill="#88CE02"></path>
                <path d="M31.507423,45.5918768 C31.9922969,45.820028 32.7056022,45.9913165 33.247619,45.9913165 C33.247619,45.9913165 33.0477591,46.9327731 33.3616246,47.5032213 C33.6753501,48.0738095 31.0794118,47.7315126 31.0794118,47.7315126 L30.9654062,45.7060224 L31.507423,45.5918768 Z" fill="#000000" opacity="0.3"></path>
                <path d="M39.0672269,48.0452381 C39.5236695,47.902521 39.837535,47.3890756 39.4666667,46.9042017 C39.0672269,46.4191877 38.72493,46.3336134 39.2383754,46.3051821 C39.7519608,46.2766106 41.6347339,47.4176471 41.6347339,47.4176471 L40.6647059,48.3019608 L39.0672269,48.0452381 Z" fill="#000000" opacity="0.3"></path>
                <path d="M30.4518207,37.8893557 C31.1079832,38.1176471 32.1064426,38.1746499 32.9623249,38.1460784 C33.8180672,38.1176471 35.1018207,38.0033613 35.9292717,37.7182073 C36.7564426,37.4329132 36.4141457,38.0319328 36.4141457,38.0319328 L35.9577031,38.459944 C35.9577031,38.459944 34.8736695,38.8878151 33.105042,38.8593838 C31.022549,38.8308123 30.3948179,38.6026611 30.3948179,38.6026611 L30.4518207,37.8893557 Z" fill="#000000" opacity="0.3"></path>
                <path d="M30.5088235,39.3158263 C31.1651261,39.5441176 32.1634454,39.6011204 33.0193277,39.572549 C33.87507,39.5441176 35.0162465,39.5441176 35.8435574,39.2302521 C36.1858543,39.1162465 35.9862745,39.6011204 35.9862745,39.6011204 L35.8435574,39.8578431 C35.8435574,39.8578431 34.7309524,40.2572829 32.9907563,40.2285714 C30.9082633,40.2001401 30.537395,40.0288515 30.537395,40.0288515 L30.5088235,39.3158263 Z" fill="#000000" opacity="0.3"></path>
                <path d="M30.8512605,36.2918768 C30.8512605,36.2918768 33.3331933,37.1761905 36.1289916,36.5771709 C36.1289916,36.5771709 35.044958,41.6836134 35.529972,44.3081232 C35.529972,44.3081232 36.0148459,44.9927171 39.6093838,46.305042 C39.6093838,46.305042 41.2068627,46.7044818 41.1498599,47.5032213 C41.1498599,47.5032213 41.2068627,47.6745098 39.2670868,47.6172269 C37.3271709,47.5602241 35.5014006,47.2177871 34.2176471,47.2177871 C32.9338936,47.2177871 31.5645658,47.27493 31.3364146,46.9040616 C31.0796919,46.5617647 31.3934174,45.6773109 31.7642857,45.1638655 C32.1638655,44.6218487 32.0495798,44.222409 32.0211485,43.252521 C31.9352941,40.7421569 29.9953782,38.1176471 30.8512605,36.2918768 Z" fill-opacity="0" fill="#000000"></path>
                <path d="M30.8512605,36.2918768 C30.8512605,36.2918768 33.3331933,37.147619 36.1289916,36.5485994 C36.1289916,36.5485994 35.044958,41.6836134 35.529972,44.3081232 C35.529972,44.3081232 36.0148459,44.9927171 39.6093838,46.305042 C39.6093838,46.305042 41.2068627,46.7044818 41.1498599,47.5032213 C41.1498599,47.5032213 41.2068627,47.6745098 39.2670868,47.6172269 C37.3271709,47.5602241 35.4728291,47.0182073 34.2176471,47.2177871 C32.8768908,47.4460784 31.5645658,47.3605042 31.3364146,46.9040616 C31.1366947,46.5333333 31.3934174,45.6773109 31.7642857,45.1638655 C32.1638655,44.6218487 32.0495798,44.222409 32.0211485,43.252521 C31.9352941,40.7421569 29.9953782,38.1176471 30.8512605,36.2918768 Z" fill-opacity="0" fill="#000000"></path>
                <path d="M28.6260504,19.3180672 C28.6260504,19.5177871 30.8512605,20.6302521 32.0778711,20.8585434 C33.3046218,21.0866947 35.8721289,20.8585434 36.2714286,20.7729692 L36.2142857,21.172409 C36.2142857,21.172409 33.1619048,21.6288515 30.8226891,21.0012605 C28.4833333,20.3736695 28.7401961,20.2309524 28.7401961,20.2309524 L28.6260504,19.3180672 Z" fill="#000000"></path>
                <g transform="translate(22.408964, 36.034454)" fill="#EFEFEF">
                    <path d="M1.45294118,7.617507 C1.7952381,7.78879552 3.0219888,8.10252101 3.82072829,7.93137255 C3.93473389,7.90280112 3.82072829,5.96288515 4.13459384,5.07857143 C4.59103641,3.85182073 5.33277311,2.85336134 5.67492997,0.685434174 C4.4767507,0.571288515 3.10756303,0.257422969 2.3942577,0.0291316527 C1.48151261,2.82492997 1.79537815,5.22114846 1.45294118,7.617507 Z"></path>
                    <path d="M3.36442577,9.41484594 C3.56414566,9.47184874 3.70672269,9.7 3.76386555,9.55756303 C3.87787115,9.30070028 3.56414566,8.81582633 3.53557423,8.47352941 C3.53557423,8.44495798 3.53557423,8.47352941 3.53557423,8.44495798 C3.27885154,8.21680672 1.53865546,8.18823529 1.65280112,8.3022409 C1.45308123,8.67310924 1.13935574,8.61610644 1.02535014,9.35784314 C0.968347339,9.72857143 1.42478992,9.41484594 1.85252101,9.38627451 C1.08235294,9.89971989 0.198039216,10.5560224 0.0553221289,11.1264706 C-0.115826331,11.9252101 0.169467787,12.1535014 1.02535014,12.5815126 C1.76708683,12.7526611 2.65140056,12.7812325 3.3359944,12.7526611 C4.10630252,12.609944 4.24901961,12.2392157 4.02072829,11.7256303 C3.67815126,10.9553221 3.45,9.95686275 3.36442577,9.41484594 Z"></path>
                </g>
                <path d="M26.0871148,8.39187675 C27.0285714,8.93389356 28.3408964,8.79131653 28.8257703,8.7627451 C28.939916,8.7627451 30.0810924,8.56302521 30.1380952,8.59145658 C30.2521008,8.62002801 30.2521008,8.70560224 30.2521008,8.70560224 C30.2521008,8.70560224 29.8242297,8.9337535 28.8543417,8.9907563 C27.9414566,9.0477591 26.857423,8.9907563 26.2584034,8.70560224 C25.545098,8.39187675 26.0871148,8.39187675 26.0871148,8.39187675 Z" fill="#000000"></path>
                <path d="M35.7865546,8.93389356 C35.9577031,9.04789916 37.0703081,9.47591036 37.5553221,9.98935574 C37.9831933,10.4459384 37.755042,10.4173669 37.6693277,10.3032213 C37.5553221,10.1605042 36.6708683,9.56148459 36.3285714,9.41890756 C35.9862745,9.27633053 35.5582633,9.01946779 35.5582633,8.96246499 C35.5582633,8.90546218 35.7865546,8.93389356 35.7865546,8.93389356 Z" fill="#000000"></path>
                <path d="M25.9443978,20.7728291 C26.7717087,20.7158263 27.627591,20.9155462 28.1696078,21.4859944 C28.454902,21.7712885 28.9113445,22.085014 28.8543417,22.3703081 C28.8543417,22.4558824 28.6830532,22.6841737 28.5406162,22.8553221 C28.455042,22.9693277 28.1983193,23.2260504 28.112605,23.3117647 C27.9985994,23.3973389 27.5991597,23.7112045 27.5135854,23.7682073 C27.4280112,23.8253501 27.3138655,23.9680672 27.2282913,23.9964986 C26.9431373,24.1392157 26.6292717,24.02507 26.3439776,23.882493 C26.0588235,23.7397759 26.4011204,23.7112045 26.0872549,23.4830532 C25.3170868,22.9410364 24.8890756,22.570028 25.2029412,21.5145658 C25.2313725,21.3148459 25.545098,21.0865546 25.9443978,20.7728291 Z" fill="#EFEFEF"></path>
            </g>
            <path d="M19.3703081,14.6602241 C16.8028011,15.6872549 10.269888,18.9394958 8.41568627,19.9379552 L8.41568627,19.9379552 C9.95616246,20.9078431 10.6693277,23.2470588 10.897619,25.6148459 C10.9260504,25.8431373 10.9546218,26.0428571 10.9831933,26.2710084 C11.0116246,26.4707283 11.0401961,26.6133053 11.0686275,26.6990196 C11.0686275,26.727591 11.0686275,26.7845938 11.0971989,26.8130252 C12.7803922,22.2201681 18.7995798,17.3704482 19.0278711,16.9995798 C19.1418768,16.8284314 18.8851541,16.0866947 19.2845938,15.3736695 C19.7981793,14.4605042 20.7967787,14.0610644 19.3703081,14.6602241 Z" id="Path" fill="#000000" opacity="0.4"></path>
            <path d="M25.4752101,36.1985994 C26.787395,33.5740896 26.8159664,31.0635854 26.787395,28.1252101 C26.787395,26.8984594 27.6717087,25.1582633 27.2154062,25.6432773 C25.5036415,27.5544818 21.1960784,31.1491597 18.0865546,31.3487395 C22.4512605,31.2061625 24.1628852,33.4028011 25.4752101,36.1985994 Z" id="Path" fill="#000000" opacity="0.4"></path>
            <path d="M5.90518207,22.362605 C7.53123249,21.1929972 15.9469188,16.7142857 17.972409,16.0865546 C19.9977591,15.4303922 19.3701681,14.660084 19.3701681,14.660084 C19.3701681,14.660084 11.1542017,18.197479 6.24747899,21.25" id="Path" fill="#000000"></path>
            <path d="M29.8683473,14.1182073 C29.2121849,13.8614846 28.6987395,14.6317927 28.869888,15.3735294 C29.0411765,16.1152661 30.5816527,16.942437 30.4959384,19.6526611 C30.4389356,21.8778711 29.9539216,22.7906162 29.9539216,22.7906162 L28.869888,21.4214286 C28.869888,21.4214286 28.6987395,18.3403361 28.3278711,17.8838936 C27.9571429,17.427451 26.787395,16.6001401 26.3309524,16.1722689 C25.8745098,15.7442577 26.8443978,15.1738095 26.787395,14.37493 C26.7303922,13.6047619 27.272409,12.0642857 27.272409,12.0642857 L29.8683473,14.1182073 Z" id="Path" fill="#000000" opacity="0.4"></path>
            <path d="M33.8337535,26.2708683 C33.7767507,28.4103641 34.2617647,31.5770308 34.4613445,33.0890756 C34.6610644,34.6009804 34.9177871,34.7151261 34.4613445,35.3998599 C34.004902,36.0560224 33.4058824,37.140056 33.4058824,37.140056 L31.437395,36.9687675 C31.437395,36.9687675 33.0064426,34.9718487 33.0918768,34.6009804 C33.177451,34.2302521 32.2931373,31.4060224 32.2931373,31.4060224 L33.8337535,26.2708683 Z" id="Path" fill="#000000" opacity="0.4"></path>
            <path d="M30.0396359,6.30168067 C30.4390756,7.18585434 30.9239496,7.58529412 31.6941176,7.84215686 C32.1505602,8.01330532 33.9477591,8.24159664 34.6610644,7.44271709 C34.9747899,7.07184874 34.77507,6.07338936 34.77507,6.07338936 L33.1490196,7.38557423 L30.952381,6.98627451 L30.6956583,6.33011204 L30.0396359,6.30168067 Z" id="Path" fill="#000000" opacity="0.4"></path>
            <path d="M30.2106443,8.27002801 C30.952381,8.75504202 32.8067227,9.21148459 33.3201681,9.29705882 C33.8336134,9.41106443 34.6609244,8.75504202 35.0603641,8.58389356 C35.4883754,8.38417367 36.230112,8.27002801 37.0858543,9.04033613 C37.1714286,9.12591036 36.8861345,9.49677871 36.8861345,9.49677871 C36.857563,9.46820728 36.6864146,9.46820728 36.4581232,9.35406162 C36.229972,9.24005602 36.0302521,9.15434174 35.6879552,9.18291317 C34.2614846,9.35406162 34.0333333,9.83907563 32.7781513,9.55364146 C31.5229692,9.26820728 31.2091036,9.04019608 29.982493,9.09719888" id="Path" stroke="#000000" stroke-width="0.5" fill="#88CE02" stroke-linejoin="round"></path>
            <path d="M29.9539216,8.35560224 C30.8953782,8.75504202 32.7211485,9.18291317 33.2345938,9.29705882 C33.7480392,9.41120448 34.5753501,8.89761905 34.9747899,8.64089636 C35.6880952,8.18445378 36.6008403,8.55532213 37.0288515,9.04033613 C37.3140056,9.35406162 37.4282913,9.55378151 37.4282913,9.63935574 C37.4282913,9.75336134 37.0859944,9.63935574 37.0859944,9.63935574 C36.8862745,9.55378151 36.6579832,9.52535014 36.4869748,9.41106443 C36.2586835,9.29705882 36.0303922,9.12591036 35.6882353,9.15434174 C34.2617647,9.32563025 33.9764706,9.8105042 32.7498599,9.52521008 C31.5232493,9.23991597 31.2093838,8.98319328 29.8971989,9.06862745" id="Path" fill="#88CE02"></path>
            <path d="M25.5322129,35.0002801 C25.4752101,34.9432773 25.5892157,34.8862745 25.5322129,34.8862745 C25.1614846,34.8862745 24.6478992,34.6009804 24.362465,34.2015406 C23.1358543,32.4329132 21.3385154,31.2633053 18.0864146,31.3488796 C13.2081232,31.4628852 11.2682073,29.4661064 10.897479,25.6434174 C10.6977591,23.5609244 10.1271709,21.5354342 8.95756303,20.3942577 L8.27282913,20.8222689 C9.58501401,21.9633053 10.0130252,23.8176471 10.2983193,26.3565826 C10.7547619,30.1792717 13.8357143,31.9480392 17.4302521,32.005042 C21.1673669,32.0620448 22.5081232,32.8323529 23.9058824,34.7152661 C24.3623249,35.3142857 24.8759104,35.5140056 25.2752101,35.5995798 L25.5322129,35.0002801 Z" id="Path" fill="#000000"></path>
            <path d="M38.7690476,16.6571429 C38.8546218,17.085014 39.0827731,17.9123249 39.5392157,18.3116246 C39.7390756,18.5113445 39.767507,18.5683473 39.5963585,18.5683473 C39.42507,18.5683473 38.169888,18.5113445 38.169888,18.5113445 L37.827591,17.9123249 L38.7690476,16.6571429 Z" id="Path" fill="#000000" opacity="0.4"></path>
        </g>
    </g>
</svg>