<?xml version="1.0" encoding="UTF-8"?>
<svg width="50px" height="50px" viewBox="0 0 50 50" version="1.1" xmlns="http://www.w3.org/2000/svg" xmlns:xlink="http://www.w3.org/1999/xlink">
    <title>ionic</title>
    <g id="ionic" stroke="none" stroke-width="1" fill="none" fill-rule="evenodd">
        <g id="Ionic_Logo" fill="#478AFF" fill-rule="nonzero">
            <path d="M25,13.8513514 C18.7914298,13.8513514 13.7583893,18.9183989 13.7583893,25.1689189 C13.7583893,31.4194389 18.7914298,36.4864865 25,36.4864865 C31.2085702,36.4864865 36.2416107,31.4194389 36.2416107,25.1689189 C36.2342144,18.9214859 31.2055039,13.8587976 25,13.8513514 Z" id="Path"></path>
            <ellipse id="Oval" cx="41.1409396" cy="9.69932432" rx="5.12080537" ry="5.15540541"></ellipse>
            <path d="M47.4463087,14.8817568 L47.2315436,14.4087838 L46.8959732,14.8006757 C46.0564583,15.7597113 44.9948896,16.495414 43.8053691,16.9425676 L43.4697987,17.0641892 L43.6040268,17.402027 C47.3354813,26.4363386 44.1351736,36.8649125 35.9922681,42.2058259 C27.8493626,47.5467394 17.0809052,46.2802472 10.3800745,39.1935429 C3.67924378,32.1068385 2.95274645,21.2164281 8.65213988,13.2912906 C14.3515333,5.36615318 24.8550676,2.66136916 33.6342282,6.85810811 L33.9496644,7.01013514 L34.0872483,6.6722973 C34.5887228,5.49801213 35.3701998,4.4664087 36.3624161,3.66891892 L36.7651007,3.33108108 L36.3053691,3.09121622 C32.8127949,1.26371969 28.9327645,0.314397397 24.9966443,0.324247265 C14.0509299,0.325906725 4.41527639,7.58893774 1.33157706,18.1622548 C-1.75212228,28.7355718 2.45370705,40.0901965 11.6610512,46.0490977 C20.8683953,52.007999 32.8749961,51.1458973 41.1491408,43.9317847 C49.4232855,36.7176721 51.9859232,24.8770559 47.442953,14.8513514 L47.4463087,14.8817568 Z" id="Path"></path>
        </g>
    </g>
</svg>