<?xml version="1.0" encoding="UTF-8"?>
<svg width="50px" height="50px" viewBox="0 0 50 50" version="1.1" xmlns="http://www.w3.org/2000/svg" xmlns:xlink="http://www.w3.org/1999/xlink">
    <title>joomla</title>
    <g id="joomla" stroke="none" stroke-width="1" fill="none" fill-rule="evenodd">
        <g id="Group" fill-rule="nonzero">
            <path d="M34.83125,30.7166667 L29.625,35.9270833 L24.6875,40.8645833 L23.725,41.8354167 C20.875,44.6791667 16.85625,45.6479167 13.2104167,44.7458333 C12.5291667,47.7125 9.86875,49.9333333 6.68958333,49.9333333 C2.99583333,49.9333333 0,46.9416667 0,43.24375 C0,40.08125 2.19791667,37.4333333 5.14375,36.7375 C4.21458333,33.0708333 5.17708333,29.01875 8.05208333,26.1541667 L8.425,25.7791667 L13.3625,30.7166667 L12.9791667,31.09375 C11.3770833,32.7166667 11.3770833,35.3104167 12.9791667,36.9041667 C14.5854167,38.5291667 17.1916667,38.5291667 18.7854167,36.9041667 L19.7541667,35.9354167 L24.6854167,30.9958333 L29.8979167,25.775 L34.83125,30.7166667 L34.83125,30.7166667 Z" id="Path" fill="#5091CD"></path>
            <path d="M36.75625,44.575 C32.9604167,45.7479167 28.6625,44.825 25.65625,41.8291667 L25.28125,41.44375 L30.2083333,36.5083333 L30.5833333,36.8916667 C32.1895833,38.4916667 34.7875,38.4916667 36.3895833,36.8916667 C37.9833333,35.2979167 37.9916667,32.7041667 36.38125,31.0979167 L35.4104167,30.1291667 L30.4833333,25.1916667 L25.2708333,19.9770833 L30.2083333,15.0416667 L35.4145833,20.2604167 L40.3458333,25.1979167 L41.3125,26.1645833 C44.15625,28.9979167 45.1583333,32.99375 44.2520833,36.625 C47.5020833,37.0916667 50,39.875 50,43.25 C50,46.9666667 47.0020833,49.9375 43.3145833,49.9375 C40.0958333,49.9375 37.375,47.6541667 36.7833333,44.59375 L36.75625,44.575 L36.75625,44.575 Z" id="Path" fill="#F44321"></path>
            <path d="M14.53125,19.6791667 L19.75625,14.4604167 L24.69375,9.525 L25.65625,8.56458333 C28.625,5.59375 32.8583333,4.65833333 36.625,5.78125 C37.0666667,2.52916667 39.8645833,-1.11022302e-14 43.2479167,-1.11022302e-14 C46.9395833,-1.11022302e-14 49.9375,2.99375 49.9375,6.68541667 C49.9375,10.0833333 47.4041667,12.8895833 44.125,13.3229167 C45.20625,17.0708333 44.2666667,21.2729167 41.3125,24.2270833 L40.9333333,24.6104167 L35.9979167,19.675 L36.38125,19.2916667 C37.9833333,17.6875 37.9833333,15.0916667 36.38125,13.49375 C34.7854167,11.8979167 32.1916667,11.89375 30.5875,13.5 L29.625,14.4604167 L24.6875,19.3958333 L19.46875,24.6083333 L14.53125,19.6791667 L14.53125,19.6791667 Z" id="Path" fill="#F9A541"></path>
            <path d="M9.00416667,25.19375 L8.04375,24.23125 C5.0625,21.25 4.1375,16.9895833 5.26875,13.2145833 C2.29166667,12.5291667 0.0625,9.87291667 0.0625,6.68541667 C0.0625,2.99791667 3.0625,1.85037171e-14 6.75,1.85037171e-14 C10.075,1.85037171e-14 12.8333333,2.42916667 13.3541667,5.60625 C16.9583333,4.7625 20.9083333,5.74166667 23.7270833,8.55416667 L24.1104167,8.93958333 L19.1729167,13.8770833 L18.7916667,13.5 C17.1875,11.90625 14.5916667,11.90625 12.9895833,13.5 C11.3833333,15.1270833 11.3854167,17.71875 12.9791667,19.3125 L13.9479167,20.2833333 L18.8854167,25.21875 L24.1041667,30.4375 L19.1729167,35.375 L13.94375,30.15625 L9.00416667,25.21875 L9.00416667,25.19375 Z" id="Path" fill="#7AC143"></path>
        </g>
    </g>
</svg>