<?xml version="1.0" encoding="UTF-8"?>
<svg width="50px" height="50px" viewBox="0 0 50 50" version="1.1" xmlns="http://www.w3.org/2000/svg" xmlns:xlink="http://www.w3.org/1999/xlink">
    <title>node-js</title>
    <g id="node-js" stroke="none" stroke-width="1" fill="none" fill-rule="evenodd">
        <path d="M25.1670726,50 C24.4975818,50 23.8327081,49.8245472 23.2463265,49.482876 L17.1285653,45.8630083 C16.214364,45.3528101 16.6599217,45.1704316 16.9623469,45.0665451 C18.181282,44.6417647 18.428301,44.5424954 19.7280367,43.808364 C19.8642434,43.7321806 20.0420048,43.7598836 20.1828287,43.8429929 L24.8808075,46.6340771 C25.0516431,46.7287292 25.294045,46.7287292 25.4487205,46.6340771 L43.7719922,36.0584304 C43.9451364,35.9614696 44.0536401,35.7652396 44.0536401,35.5620837 L44.0536401,14.4154075 C44.0536401,14.2076345 43.9451364,14.0160216 43.7696836,13.9098265 L25.4533376,3.34341417 C25.282502,3.24645343 25.0585689,3.24645343 24.8877333,3.34341417 L6.57369594,13.9121351 C6.39824316,14.0160216 6.2851223,14.2145603 6.2851223,14.4154075 L6.2851223,35.5620837 C6.2851223,35.7652396 6.39824316,35.9568525 6.57369594,36.0515046 L11.5925687,38.9534011 C14.3167038,40.3131601 15.9858137,38.7109993 15.9858137,37.0996041 L15.9858137,16.2184156 C15.9858137,15.9252248 16.2235984,15.6920573 16.5167892,15.6920573 L18.8415384,15.6920573 C19.1301121,15.6920573 19.3702053,15.9252248 19.3702053,16.2184156 L19.3702053,37.0996041 C19.3702053,40.7333233 17.3917445,42.8179793 13.945021,42.8179793 C12.8853786,42.8179793 12.0519779,42.8179793 9.72492007,41.6729191 L4.92074614,38.9072293 C3.73182275,38.2192698 3,36.9356943 3,35.5643923 L3,14.4177161 C3,13.0441056 3.73182275,11.7628386 4.92074614,11.0794963 L23.2440179,0.489998038 C24.4029296,-0.163332679 25.9427585,-0.163332679 27.0924359,0.489998038 L45.4157076,11.0794963 C46.6023224,11.7651472 47.3387624,13.0464142 47.3387624,14.4177161 L47.3387624,35.5643923 C47.3387624,36.9380028 46.6023224,38.2146526 45.4157076,38.9072293 L27.0924359,49.4851846 C26.5106715,49.8245472 25.8481064,50 25.1670726,50 M30.8300417,35.4304942 C22.8076945,35.4304942 21.1293502,31.7482945 21.1293502,28.6617109 C21.1293502,28.3708287 21.3671349,28.133044 21.6603257,28.133044 L24.0289382,28.133044 C24.2944259,28.133044 24.5137419,28.3223483 24.5552965,28.5809103 C24.9108192,30.9933859 25.979696,32.2100124 30.8300417,32.2100124 C34.6876941,32.2100124 36.3314095,31.3373657 36.3314095,29.2873385 C36.3314095,28.1053409 35.8650745,27.2303856 29.86736,26.6416954 C24.8531045,26.1453488 21.7526693,25.0395346 21.7526693,21.0248981 C21.7526693,17.328847 24.8692646,15.1218358 30.0912932,15.1218358 C35.9620353,15.1218358 38.8662403,17.16032 39.233306,21.5327877 C39.2471575,21.6805374 39.19406,21.8259786 39.0947907,21.9390994 C38.9932127,22.0429859 38.8546974,22.1076264 38.7069477,22.1076264 L36.3267923,22.1076264 C36.0797733,22.1076264 35.8627659,21.9344822 35.811977,21.694389 C35.2394469,19.154941 33.8542934,18.3446262 30.0889846,18.3446262 C25.8758094,18.3446262 25.3863886,19.8151974 25.3863886,20.9117773 C25.3863886,22.2438332 25.9635358,22.6316762 31.654208,23.3842762 C37.2848568,24.1299505 39.9605128,25.1826671 39.9605128,29.1418974 C39.9628202,33.1426823 36.6338347,35.4304942 30.8300417,35.4304942" id="Shape" fill="#83CD29" fill-rule="nonzero"></path>
    </g>
</svg>