<?xml version="1.0" encoding="UTF-8"?>
<svg width="50px" height="50px" viewBox="0 0 50 50" version="1.1" xmlns="http://www.w3.org/2000/svg" xmlns:xlink="http://www.w3.org/1999/xlink">
    <title>swift</title>
    <g id="swift" stroke="none" stroke-width="1" fill="none" fill-rule="evenodd">
        <path d="M49.9450398,12.9685406 C49.9448366,11.9070772 49.8389557,10.8483653 49.629019,9.8086222 C49.2391225,7.6743011 48.2011088,5.71821129 46.6611707,4.2158462 C45.8789606,3.43112725 44.9674428,2.79224273 43.9681231,2.3282843 C42.9973227,1.83535563 41.9601558,1.49139954 40.8903545,1.30760268 C39.8323715,1.09787358 38.6644683,1.09787358 37.6064853,1 L11.4729321,1 C10.6585974,1.01497122 9.84614243,1.08503551 9.04094531,1.2097291 C8.2382959,1.30478609 7.45232027,1.51179656 6.70513877,1.82493446 C6.4990382,1.92280804 6.16927727,2.03466356 5.9631767,2.13253714 C5.25255202,2.51349524 4.57662782,2.95800751 3.94339104,3.46082144 C3.73729046,3.67055054 3.51744985,3.76842412 3.31134927,3.96417128 C2.52126078,4.68772734 1.86509267,5.5496075 1.37400385,6.50888436 C0.850723162,7.45996612 0.492801362,8.49587374 0.316020885,9.57092922 C0.158782409,10.6135026 0.0533081804,11.6634813 0,12.7168657 L0,37.0873871 C0,38.1488506 0.106084172,39.2075624 0.316020885,40.2473056 C0.705917343,42.3816267 1.743931,44.3377165 3.28386919,45.8400816 C4.05806076,46.6008461 4.9550822,47.2204245 5.93569662,47.6717157 C6.90649702,48.1646444 7.94366396,48.5086005 9.01346524,48.6923973 C10.0714482,48.9021264 11.2393515,48.9021264 12.2973344,49 L37.6614455,49 C38.7629556,48.9986932 39.8620799,48.8957373 40.9453146,48.6923973 C41.9955499,48.5077326 43.0138097,48.1686169 43.9681231,47.6856976 C44.9619119,47.2055143 45.8864842,46.5892575 46.7161308,45.8540635 C47.4963833,45.1281371 48.1431342,44.2664034 48.6259962,43.3093504 C49.1492768,42.3582687 49.5071986,41.322361 49.6839791,40.2473056 C49.8416778,39.2001043 49.9471532,38.1454471 50,37.0873871 L50,12.9685406 L49.9450398,12.9685406 Z" id="Path" fill="#F05138" fill-rule="nonzero"></path>
        <path d="M33.3882935,37.4935422 C28.936521,39.925529 22.8222039,40.1728497 16.6804067,37.6859027 C11.8890993,35.7580983 7.78694872,32.4361701 4.90519373,28.150316 C6.24811095,29.1533256 7.71136241,29.9841939 9.26078593,30.6235229 C15.6086837,33.3715306 21.9703215,33.2478703 26.435834,30.6235229 L26.435834,30.6235229 C20.541378,26.138408 15.23291,20.9314934 10.6347898,15.1247595 C9.83897856,14.2821357 9.13007753,13.361485 8.51882385,12.3767519 C13.347133,16.4327345 18.4830157,20.1077847 23.8801869,23.3687826 C19.9488296,19.3824245 16.3334583,15.096349 13.0667766,10.5493267 C18.5151003,15.7756685 24.5026403,20.4091032 30.9288266,24.3718054 L31.6158285,24.7565265 C31.8018875,24.3079513 31.962444,23.8492185 32.0967299,23.3825227 C33.580654,18.2712284 31.8906293,12.4591921 28.1808189,7.65017862 C36.768343,12.5553724 41.8521572,21.7749382 39.7361913,29.4968398 C39.7361913,29.7029404 39.626271,29.9090409 39.5575708,30.1151415 L39.626271,30.1975818 C43.8719428,35.2126958 42.7040396,40.5163506 42.1681781,39.5133278 C39.8461116,35.3226161 35.5454795,36.6141797 33.3882935,37.4935422 Z" id="Path" fill="#FFFFFF" fill-rule="nonzero"></path>
    </g>
</svg>