<?xml version="1.0" encoding="UTF-8"?>
<svg width="50px" height="50px" viewBox="0 0 50 50" version="1.1" xmlns="http://www.w3.org/2000/svg" xmlns:xlink="http://www.w3.org/1999/xlink">
    <title>three-js</title>
    <g id="three-js" stroke="none" stroke-width="1" fill="none" fill-rule="evenodd">
        <path d="M3.58167647,27.7135473 C3.75329847,27.7135473 3.92771865,27.7051527 4.10493702,27.6883636 C4.28215538,27.6715745 4.45284465,27.6482563 4.61700482,27.618409 C4.78116499,27.5885617 4.93599788,27.5503198 5.08150349,27.5036834 C5.2270091,27.457047 5.35386014,27.402016 5.46205661,27.3385905 L5.31095464,26.269684 C5.24006729,26.2883385 5.15518902,26.3069931 5.05631983,26.3256477 C4.95745063,26.3443022 4.85205234,26.3610913 4.74012495,26.376015 C4.62446665,26.3946695 4.50414471,26.4095932 4.37915912,26.4207859 C4.25417353,26.4319787 4.13198613,26.437575 4.01259692,26.437575 C3.84843675,26.437575 3.70013296,26.4189205 3.56768555,26.3816113 C3.43523813,26.3443022 3.32237802,26.2808767 3.22910519,26.1913348 C3.13583237,26.1055238 3.06401229,25.9889328 3.01364497,25.8415617 C2.96327764,25.6941906 2.93809398,25.5104432 2.93809398,25.2903193 L2.93809398,22.6880075 L5.19902725,22.6880075 L5.19902725,21.5407517 L2.93809398,21.5407517 L2.93809398,20.0577138 L1.38230326,20.0577138 L1.38230326,21.5407517 L0,21.5407517 L0,22.6880075 L1.38230326,22.6880075 L1.38230326,25.4414213 C1.38230326,25.840629 1.43453604,26.1829402 1.53900161,26.4683551 C1.64346717,26.7537699 1.79270369,26.9878847 1.98671117,27.1706994 C2.17698773,27.3572451 2.40737161,27.4943561 2.6778628,27.5820326 C2.94835399,27.6697091 3.24962521,27.7135473 3.58167647,27.7135473 Z M7.99670323,27.5960235 L7.99670323,23.225259 C8.05639784,23.1469098 8.12262154,23.0760224 8.19537435,23.0125969 C8.26812715,22.9491714 8.34927451,22.8950732 8.43881642,22.8503022 C8.53582016,22.7980694 8.64401663,22.7588948 8.76340585,22.7327784 C8.88279506,22.7066621 9.01151156,22.6936039 9.14955534,22.6936039 C9.32863917,22.6936039 9.48906842,22.7169221 9.63084312,22.7635585 C9.77261781,22.8101949 9.89387248,22.882015 9.99460713,22.9790187 C10.0953418,23.0760224 10.1727582,23.2028735 10.2268565,23.3595718 C10.2809547,23.5162702 10.3080038,23.7028158 10.3080038,23.9192088 L10.3080038,27.5960235 L11.8637945,27.5960235 L11.8637945,23.9304015 C11.8637945,23.4864229 11.810629,23.1068025 11.704298,22.7915403 C11.597967,22.4762782 11.4496632,22.2179125 11.2593866,22.0164432 C11.0691101,21.8149738 10.8415244,21.6666701 10.5766296,21.5715318 C10.3117347,21.4763935 10.0207235,21.4288244 9.70359592,21.4288244 C9.48720297,21.4288244 9.28200275,21.4605371 9.08799528,21.5239626 C8.8939878,21.5873882 8.71676944,21.6769301 8.55634018,21.7925884 C8.45187461,21.8672066 8.35207269,21.9539504 8.25693441,22.0528196 C8.16179613,22.1516887 8.0750524,22.2589525 7.99670323,22.3746108 L7.99670323,19 L6.44091251,19 L6.44091251,27.5960235 L7.99670323,27.5960235 Z M15.1707401,27.5960235 L15.1707401,23.9583834 C15.2416275,23.7867614 15.3311694,23.6375248 15.4393659,23.5106738 C15.5475624,23.3838228 15.6781443,23.2793572 15.8311117,23.1972771 C15.9579628,23.1263898 16.1025357,23.0732243 16.2648304,23.0377806 C16.4271251,23.0023369 16.6090071,22.9846151 16.8104764,22.9846151 C17.0044839,22.9846151 17.2087514,22.9967405 17.4232789,23.0209915 C17.6378064,23.0452424 17.8476702,23.0816188 18.0528704,23.1301207 L18.2823216,21.5799263 C18.1592014,21.5426172 17.9978395,21.5081063 17.7982356,21.4763935 C17.5986318,21.4446807 17.3813061,21.4288244 17.1462586,21.4288244 C16.7395891,21.4288244 16.3646323,21.5267608 16.0213883,21.7226338 C15.6781443,21.9185067 15.3834022,22.1880651 15.1371619,22.5313091 L15.1259692,22.3969963 L15.0644091,21.5407517 L13.6149494,21.5407517 L13.6149494,27.5960235 L15.1707401,27.5960235 Z M22.0929404,27.7079509 C22.6786938,27.7079509 23.1860979,27.5941581 23.6151529,27.3665724 C24.0442079,27.1389867 24.3576046,26.8852846 24.555343,26.6054661 L23.7774476,25.7660107 C23.5983638,25.9973273 23.3651818,26.1708148 23.0779015,26.2864731 C22.7906212,26.4021314 22.4940136,26.4599605 22.1880787,26.4599605 C21.9716858,26.4599605 21.7720819,26.4263823 21.5892672,26.3592259 C21.4064524,26.2920694 21.2441577,26.1969312 21.102383,26.073811 C20.9643393,25.9544218 20.8542773,25.8210417 20.7721972,25.6736706 C20.6901172,25.5262995 20.6229607,25.3313593 20.5707279,25.08885 L20.5707279,25.0720609 L24.6784631,25.0720609 L24.6784631,24.4116893 C24.6784631,23.9677106 24.6169031,23.5619739 24.4937829,23.1944789 C24.3706628,22.826984 24.191579,22.5126546 23.9565315,22.2514907 C23.717753,21.9903268 23.4276746,21.7879247 23.086296,21.6442846 C22.7449175,21.5006444 22.3559698,21.4288244 21.919453,21.4288244 C21.4978598,21.4288244 21.1079794,21.5053081 20.7498118,21.6582755 C20.3916441,21.8112429 20.0819783,22.0257704 19.8208144,22.301858 C19.5596505,22.5779456 19.3563158,22.9071986 19.2108102,23.2896172 C19.0653045,23.6720358 18.9925517,24.0945617 18.9925517,24.5571949 L18.9925517,24.7810497 C18.9925517,25.1877192 19.0662373,25.569205 19.2136083,25.9255072 C19.3609794,26.2818094 19.5708433,26.5905425 19.8431999,26.8517064 C20.1155566,27.1166012 20.4420114,27.3255323 20.8225646,27.4784998 C21.2031177,27.6314672 21.6265763,27.7079509 22.0929404,27.7079509 Z M23.1506543,23.9975579 L20.5987098,23.9975579 C20.6360189,23.7998196 20.6919826,23.6207357 20.7666009,23.4603065 C20.8412191,23.2998772 20.934492,23.1618334 21.0464193,23.0461751 C21.1546158,22.9305168 21.2814669,22.8419076 21.4269725,22.7803476 C21.5724781,22.7187875 21.7329073,22.6880075 21.9082602,22.6880075 C22.1059986,22.6880075 22.2804188,22.7187875 22.4315208,22.7803476 C22.5826228,22.8419076 22.7104065,22.9249205 22.8148721,23.029386 C22.9193377,23.1375825 23.0014177,23.2644335 23.0611124,23.4099392 C23.120807,23.5554448 23.1506543,23.7102776 23.1506543,23.8744378 L23.1506543,23.9975579 Z M28.4499074,27.7079509 C29.0356607,27.7079509 29.5430649,27.5941581 29.9721199,27.3665724 C30.4011749,27.1389867 30.7145716,26.8852846 30.91231,26.6054661 L30.1344146,25.7660107 C29.9553308,25.9973273 29.7221487,26.1708148 29.4348684,26.2864731 C29.1475881,26.4021314 28.8509806,26.4599605 28.5450457,26.4599605 C28.3286527,26.4599605 28.1290489,26.4263823 27.9462342,26.3592259 C27.7634194,26.2920694 27.6011247,26.1969312 27.45935,26.073811 C27.3213062,25.9544218 27.2112443,25.8210417 27.1291642,25.6736706 C27.0470841,25.5262995 26.9799277,25.3313593 26.9276949,25.08885 L26.9276949,25.0720609 L31.0354301,25.0720609 L31.0354301,24.4116893 C31.0354301,23.9677106 30.97387,23.5619739 30.8507499,23.1944789 C30.7276298,22.826984 30.548546,22.5126546 30.3134984,22.2514907 C30.07472,21.9903268 29.7846415,21.7879247 29.443263,21.6442846 C29.1018845,21.5006444 28.7129368,21.4288244 28.27642,21.4288244 C27.8548268,21.4288244 27.4649464,21.5053081 27.1067787,21.6582755 C26.7486111,21.8112429 26.4389453,22.0257704 26.1777814,22.301858 C25.9166175,22.5779456 25.7132827,22.9071986 25.5677771,23.2896172 C25.4222715,23.6720358 25.3495187,24.0945617 25.3495187,24.5571949 L25.3495187,24.7810497 C25.3495187,25.1877192 25.4232042,25.569205 25.5705753,25.9255072 C25.7179464,26.2818094 25.9278102,26.5905425 26.2001669,26.8517064 C26.4725235,27.1166012 26.7989784,27.3255323 27.1795315,27.4784998 C27.5600847,27.6314672 27.9835433,27.7079509 28.4499074,27.7079509 Z M29.5076212,23.9975579 L26.9556768,23.9975579 C26.9929859,23.7998196 27.0489496,23.6207357 27.1235678,23.4603065 C27.1981861,23.2998772 27.2914589,23.1618334 27.4033863,23.0461751 C27.5115828,22.9305168 27.6384338,22.8419076 27.7839394,22.7803476 C27.929445,22.7187875 28.0898743,22.6880075 28.2652272,22.6880075 C28.4629656,22.6880075 28.6373858,22.7187875 28.7884878,22.7803476 C28.9395897,22.8419076 29.0673735,22.9249205 29.1718391,23.029386 C29.2763046,23.1375825 29.3583847,23.2644335 29.4180793,23.4099392 C29.4777739,23.5554448 29.5076212,23.7102776 29.5076212,23.8744378 L29.5076212,23.9975579 Z M34.5214595,27.7079509 C34.8497799,27.7079509 35.1118765,27.6118799 35.3077494,27.4197379 C35.5036224,27.2275959 35.6015588,26.9860193 35.6015588,26.695008 C35.6015588,26.4039968 35.5054878,26.159622 35.3133458,25.9618836 C35.1212038,25.7641452 34.8572417,25.6652761 34.5214595,25.6652761 C34.1819465,25.6652761 33.9170516,25.765078 33.7267751,25.9646818 C33.5364985,26.1642857 33.4413602,26.4077277 33.4413602,26.695008 C33.4413602,26.9822883 33.538364,27.2229322 33.7323714,27.4169397 C33.9263789,27.6109472 34.1894083,27.7079509 34.5214595,27.7079509 Z M41.4660453,20.8188201 C41.7421329,20.8188201 41.961324,20.7414036 42.1236187,20.5865707 C42.2859134,20.4317379 42.3670608,20.2330667 42.3670608,19.9905574 C42.3670608,19.7480481 42.2859134,19.5493769 42.1236187,19.394544 C41.961324,19.2397112 41.7421329,19.1622947 41.4660453,19.1622947 C41.1899577,19.1622947 40.9726321,19.2425093 40.8140683,19.4029386 C40.6555045,19.5633679 40.5762226,19.7592408 40.5762226,19.9905574 C40.5762226,20.2293358 40.6573699,20.4270742 40.8196646,20.5837726 C40.9819593,20.7404709 41.1974196,20.8188201 41.4660453,20.8188201 Z M39.6863998,30.041637 C40.0930693,30.041637 40.4549679,29.996866 40.7720955,29.9073241 C41.0892231,29.8177822 41.3578488,29.677873 41.5779727,29.4875964 C41.7980966,29.3010508 41.9659876,29.0632051 42.0816459,28.7740593 C42.1973042,28.4849135 42.2551334,28.1388714 42.2551334,27.7359328 L42.2551334,21.5407517 L39.1547447,21.5407517 L39.1547447,22.8111276 L40.6825536,22.8111276 L40.6825536,27.7359328 C40.6825536,27.9299402 40.6545717,28.0913022 40.598608,28.2200187 C40.5426443,28.3487352 40.4680261,28.4522681 40.3747533,28.5306172 C40.2777495,28.6089664 40.1630239,28.6649301 40.0305765,28.6985083 C39.8981291,28.7320865 39.7572872,28.7488756 39.6080506,28.7488756 C39.5707415,28.7488756 39.5138451,28.7479429 39.4373614,28.7460775 C39.3608776,28.744212 39.2815957,28.7395484 39.1995157,28.7320865 C39.1137047,28.7283556 39.0306918,28.7218265 38.9504772,28.7124992 C38.8702626,28.703172 38.8077698,28.6929119 38.7629988,28.6817192 L38.6846497,29.9464987 C38.7518061,29.9614224 38.8198953,29.9744806 38.8889172,29.9856733 C38.957939,29.996866 39.0278937,30.0061933 39.098781,30.0136551 C39.1957847,30.0248479 39.2937212,30.0323097 39.3925904,30.0360406 C39.4914596,30.0397715 39.5893961,30.041637 39.6863998,30.041637 Z M47.2745681,27.7135473 C47.6886994,27.7135473 48.0636562,27.6678436 48.3994383,27.5764362 C48.7352205,27.4850289 49.0225008,27.3572451 49.2612792,27.1930849 C49.4963267,27.0289248 49.6782088,26.8339845 49.8069253,26.6082643 C49.9356418,26.3825441 50,26.1353711 50,25.8667454 C50,25.5757341 49.9356418,25.3248302 49.8069253,25.1140337 C49.6782088,24.9032371 49.5000577,24.7232205 49.272472,24.573984 C49.0448863,24.4284784 48.7743951,24.3090892 48.4609984,24.2158164 C48.1476017,24.1225435 47.8080886,24.0460598 47.4424591,23.9863652 C47.1887571,23.9490561 46.9798259,23.9052179 46.8156658,23.8548505 C46.6515056,23.8044832 46.5227891,23.7475868 46.4295163,23.6841613 C46.3325125,23.6244666 46.2653561,23.5563775 46.228047,23.4798938 C46.1907378,23.4034101 46.1720833,23.3203972 46.1720833,23.2308553 C46.1720833,23.1413134 46.193536,23.0564351 46.2364415,22.9762205 C46.279347,22.8960059 46.3418398,22.8260513 46.4239199,22.7663567 C46.5134618,22.6992002 46.6291201,22.6469674 46.7708948,22.6096583 C46.9126695,22.5723492 47.0786951,22.5536946 47.2689717,22.5536946 C47.4928265,22.5536946 47.6840358,22.5816765 47.8425996,22.6376402 C48.0011634,22.6936039 48.1270817,22.7682221 48.2203545,22.8614949 C48.2875109,22.9323823 48.3378783,23.0116642 48.3714565,23.0993406 C48.4050347,23.1870171 48.4218238,23.2812227 48.4218238,23.3819573 L49.9776145,23.3819573 C49.9776145,23.1021388 49.9160545,22.8428404 49.7929343,22.6040619 C49.6698142,22.3652835 49.4925958,22.1582178 49.2612792,21.9828649 C49.0262317,21.8112429 48.7408169,21.6759973 48.4050347,21.5771281 C48.0692525,21.478259 47.6905649,21.4288244 47.2689717,21.4288244 C46.8660331,21.4288244 46.5041345,21.4791917 46.183276,21.5799263 C45.8624175,21.680661 45.5900608,21.8168393 45.3662061,21.9884613 C45.1423513,22.1600833 44.9707293,22.3596871 44.8513401,22.5872728 C44.7319509,22.8148585 44.6722563,23.053637 44.6722563,23.3036081 C44.6722563,23.5610411 44.7310181,23.7886268 44.8485419,23.9863652 C44.9660657,24.1841036 45.1292931,24.3575911 45.3382242,24.5068276 C45.5471553,24.659795 45.7980592,24.7894442 46.0909359,24.8957752 C46.3838126,25.0021063 46.7074693,25.0907155 47.061906,25.1616028 C47.3417245,25.2138356 47.5730411,25.2660684 47.7558558,25.3183011 C47.9386706,25.3705339 48.0860416,25.4264976 48.197969,25.4861922 C48.3061655,25.5496178 48.3817165,25.6167742 48.424622,25.6876615 C48.4675275,25.7585489 48.4889802,25.840629 48.4889802,25.9339018 C48.4889802,26.0271746 48.465662,26.1129856 48.4190256,26.1913348 C48.3723892,26.269684 48.3024346,26.3387058 48.2091618,26.3984005 C48.112158,26.4580951 47.9881052,26.5056642 47.8370032,26.5411079 C47.6859012,26.5765516 47.5096156,26.5942734 47.3081463,26.5942734 C47.1402552,26.5942734 46.9770278,26.5774843 46.8184639,26.5439061 C46.6599001,26.5103278 46.5190582,26.4562296 46.3959381,26.3816113 C46.2728179,26.310724 46.1720833,26.2165184 46.0937341,26.0989947 C46.0153849,25.9814709 45.970614,25.840629 45.9594212,25.6764688 L44.4763833,25.6764688 C44.4763833,25.922709 44.5370107,26.1680166 44.6582653,26.4123914 C44.77952,26.6567662 44.9576711,26.8740919 45.1927186,27.0643684 C45.4277661,27.2583759 45.7197101,27.4150742 46.0685504,27.5344635 C46.4173908,27.6538527 46.8193967,27.7135473 47.2745681,27.7135473 Z" id="three.js" fill="#049EF4" fill-rule="nonzero"></path>
    </g>
</svg>