<?xml version="1.0" encoding="UTF-8"?>
<svg width="50px" height="50px" viewBox="0 0 50 50" version="1.1" xmlns="http://www.w3.org/2000/svg" xmlns:xlink="http://www.w3.org/1999/xlink">
    <title>xcode</title>
    <g id="xcode" stroke="none" stroke-width="1" fill="none" fill-rule="evenodd">
        <g id="icons8-xcode" transform="translate(0.000000, 1.000000)" fill-rule="nonzero">
            <polygon id="Path" fill="#03A9F4" points="47.7272727 39.7727273 5.22727273 46.4772727 0 12.2727273 42.2727273 5.79545455"></polygon>
            <polygon id="Path" fill="#039BE5" points="42.2727273 5.79545455 47.7272727 39.7727273 5.22727273 46.4772727 4.77272727 43.1818182"></polygon>
            <polygon id="Path" fill="#29B6F6" points="0 12.2727273 2.72727273 29.8863636 22.9545455 8.75"></polygon>
            <path d="M7.15909091,43.8636364 L2.61363636,14.0909091 L40.4545455,8.29545455 L45.2272727,37.8409091 L7.15909091,43.8636364 Z M5.22727273,16.0227273 L9.09090909,41.25 L42.6136364,35.9090909 L38.6363636,10.7954545 L5.22727273,16.0227273 Z" id="Shape" fill="#FFFFFF"></path>
            <polygon id="Path" fill="#FFFFFF" points="10.3409091 27.2727273 10.7954545 30.6818182 38.6363636 26.25 38.0681818 22.8409091"></polygon>
            <path d="M16.5909091,35.5681818 L13.0681818,39.7727273 L13.5227273,34.3181818 C13.5227273,34.2045455 13.5227273,34.0909091 13.6363636,33.9772727 L19.5454545,19.5454545 C19.7727273,18.9772727 20.4545455,18.6363636 21.0227273,18.9772727 L22.0454545,19.4318182 C22.6136364,19.6590909 22.9545455,20.3409091 22.6136364,20.9090909 L16.8181818,35.2272727 C16.7045455,35.3409091 16.7045455,35.4545455 16.5909091,35.5681818 Z M32.6136364,29.7727273 L22.0454545,17.3863636 C21.5909091,16.9318182 21.7045455,16.1363636 22.1590909,15.7954545 L23.0681818,15.1136364 C23.5227273,14.6590909 24.3181818,14.7727273 24.6590909,15.2272727 L35.2272727,27.6136364 L32.6136364,29.7727273 Z M35.9090909,28.4090909 C35.9090909,28.4090909 38.6363636,29.2045455 38.6363636,32.3863636 C38.6363636,34.4318182 38.0681818,35.2272727 38.0681818,35.2272727 C38.0681818,35.2272727 37.6136364,33.8636364 35.4545455,33.0681818 C32.5,32.0454545 32.6136364,29.7727273 32.6136364,29.7727273 L35.1136364,29.2045455 L35.9090909,28.4090909 Z" id="Shape" fill="#FFFFFF"></path>
            <polygon id="Path" fill="#03A9F4" points="20.9090909 25 19.5454545 28.2954545 21.7045455 26.25 22.1590909 25"></polygon>
            <polygon id="Path" fill="#039BE5" points="19.8863636 30.6818182 21.7045455 26.25 19.5454545 28.2954545 18.6363636 30.6818182"></polygon>
            <polygon id="Path" fill="#03A9F4" points="15 30.6818182 17.2727273 25 16.0227273 25 13.75 30.6818182"></polygon>
            <polygon id="Path" fill="#039BE5" points="36.25 27.0454545 32.5 22.7272727 31.0227273 22.7272727 35 27.2727273 35.2272727 27.6136364 32.6136364 29.7727273 31.1363636 28.0681818 31.1363636 28.0681818 27.5 23.8636364 26.0227273 23.8636364 29.4318182 27.8409091 31.7045455 30.5681818 32.5 31.3636364 33.2954545 30.6818182 35.9090909 28.4090909 36.8181818 27.7272727"></polygon>
            <polygon id="Path" fill="#03A9F4" points="17.0454545 20.3409091 17.0454545 21.5909091 22.7272727 23.9772727 22.7272727 22.7272727"></polygon>
            <polygon id="Path" fill="#039BE5" points="18.1818182 34.7727273 14.6590909 33.2954545 13.75 34.2045455 18.1818182 36.0227273"></polygon>
            <polygon id="Path" fill="#03A9F4" points="12.5 32.3863636 12.5 33.6363636 13.75 34.2045455 14.6590909 33.2954545"></polygon>
            <path d="M40.7954545,10.4545455 C40.7954545,10.4545455 40.7954545,10.5681818 40.7954545,10.5681818 L41.5909091,15.3409091 L43.0681818,11.25 C43.0681818,11.1363636 43.1818182,11.0227273 43.1818182,10.9090909 L42.7272727,8.29545455 C41.8181818,8.86363636 41.0227273,9.77272727 40.7954545,10.4545455 Z M36.25,33.4090909 C36.0227273,33.2954545 35.7954545,33.1818182 35.4545455,33.0681818 C34.8863636,32.8409091 34.5454545,32.7272727 34.2045455,32.5 L32.7272727,37.5 L35.2272727,37.1590909 L36.25,33.4090909 Z M32.0454545,39.8863636 L31.4772727,42.3863636 L33.8636364,41.9318182 L34.5454545,39.5454545 L32.0454545,39.8863636 Z M37.2727273,21.3636364 L37.2727273,21.4772727 L36.8181818,23.0681818 L38.0681818,22.8409091 L38.5227273,25.3409091 L39.4318182,22.0454545 L40,20.2272727 L39.2045455,15.2272727 L37.9545455,19.2045455 L37.2727273,21.3636364 Z" id="Shape" fill="#0277BD"></path>
            <path d="M39.2045455,15.2272727 L40,20.2272727 L41.4772727,15.3409091 L40.6818182,10.5681818 C40.1136364,12.1590909 39.5454545,13.75 39.4318182,13.9772727 L39.2045455,15.2272727 Z M32.7272727,37.5 L32.0454545,39.8863636 L34.5454545,39.5454545 L35.2272727,37.1590909 L32.7272727,37.5 Z M38.5227273,25.3409091 L38.0681818,22.8409091 L36.8181818,23.0681818 L35.7954545,26.7045455 L38.1818182,26.3636364 L38.5227273,25.3409091 Z M35.9090909,28.4090909 L35.2272727,28.75 L34.2045455,32.5 C34.5454545,32.7272727 35,32.9545455 35.4545455,33.0681818 C35.7954545,33.1818182 36.0227273,33.2954545 36.25,33.4090909 L37.3863636,29.3181818 C36.7045455,28.6363636 35.9090909,28.4090909 35.9090909,28.4090909 Z" id="Shape" fill="#90A4AE"></path>
            <path d="M37.3863636,29.3181818 L38.1818182,26.25 L35.6818182,26.5909091 L35,29.0909091 L35.9090909,28.2954545 C35.9090909,28.4090909 36.7045455,28.6363636 37.3863636,29.3181818 Z" id="Path" fill="#0277BD"></path>
            <path d="M35.9090909,28.4090909 L35,29.2045455 L34.0909091,32.5 C34.4318182,32.7272727 34.8863636,32.9545455 35.3409091,33.0681818 C35.6818182,33.1818182 35.9090909,33.2954545 36.1363636,33.4090909 L37.2727273,29.3181818 C36.7045455,28.6363636 35.9090909,28.4090909 35.9090909,28.4090909 Z" id="Path" fill="#90A4AE"></path>
            <path d="M38.6363636,1.70454545 C31.8181818,1.70454545 27.2727273,3.40909091 27.2727273,3.40909091 L27.2727273,3.97727273 C37.0454545,3.97727273 38.2954545,7.61363636 38.6363636,8.52272727 L38.6363636,1.70454545 Z" id="Path" fill="#78909C"></path>
            <path d="M47.7272727,3.75 C47.5,4.20454545 47.2727273,4.54545455 46.5909091,4.54545455 C45.3409091,4.54545455 44.3181818,2.72727273 44.3181818,2.72727273 C42.3863636,1.47727273 38.6363636,0 35.2272727,0 C28.4090909,0 26.1363636,1.70454545 26.1363636,1.70454545 L26.1363636,2.27272727 C30.9090909,2.27272727 32.7272727,2.72727273 34.4318182,3.97727273 C37.1590909,6.02272727 36.9318182,10.6818182 35.9090909,14.3181818 L33.8636364,20.4545455 L37.1590909,21.4772727 L39.5454545,13.9772727 C39.6590909,13.8636364 40.2272727,12.1590909 40.7954545,10.4545455 C41.1363636,9.54545455 42.0454545,8.40909091 43.1818182,8.06818182 C43.8636364,7.84090909 44.7727273,7.72727273 45.3409091,8.18181818 C45.9090909,8.63636364 45.9090909,8.97727273 45.7954545,9.43181818 L45.7954545,9.43181818 L48.0681818,10.1136364 L50,4.54545455 L47.7272727,3.75 Z" id="Path" fill="#D7DEE2"></path>
            <path d="M46.5909091,4.54545455 C45.3409091,4.54545455 44.3181818,2.72727273 44.3181818,2.72727273 L43.4090909,5.56818182 C43.0681818,6.81818182 41.7045455,7.38636364 40.5681818,7.04545455 L35.6818182,5.45454545 C36.25,6.47727273 36.4772727,7.61363636 36.5909091,8.97727273 L40.9090909,10.3409091 C41.25,9.65909091 41.8181818,8.86363636 42.6136364,8.40909091 L42.6136364,8.40909091 C42.8409091,8.29545455 43.0681818,8.18181818 43.2954545,8.06818182 C43.9772727,7.84090909 44.8863636,7.72727273 45.4545455,8.18181818 C46.0227273,8.63636364 46.0227273,8.97727273 45.9090909,9.43181818 L45.9090909,9.43181818 L47.7272727,3.75 C47.5,4.20454545 47.2727273,4.54545455 46.5909091,4.54545455 Z" id="Path" fill="#90A4AE"></path>
            <path d="M33.8636364,20.4545455 L23.9772727,43.5227273 C23.4090909,45 24.2045455,46.8181818 25.7954545,47.2727273 L26.8181818,47.6136364 C28.4090909,48.0681818 30,47.1590909 30.3409091,46.0227273 L37.1590909,21.4772727 L33.8636364,20.4545455 Z" id="Path" fill="#424242"></path>
        </g>
    </g>
</svg>