<svg width="48" height="48" xmlns="http://www.w3.org/2000/svg"><g transform="translate(0 1)" fill="none"><path d="M8.5 0h31C44.2 0 48 3.8 48 8.5v29.8c0 4.7-3.8 8.5-8.5 8.5h-31C3.8 46.8 0 43 0 38.3V8.5C0 3.8 3.8 0 8.5 0z" fill="#00005B"/><path d="M20.083 29.167h-7.75l-1.583 4.916a.365.365 0 0 1-.396.292H6.438c-.23 0-.292-.125-.23-.375l6.709-19.23c.062-.207.125-.395.208-.645.083-.438.125-.896.125-1.354-.02-.104.063-.209.167-.23h5.396c.145 0 .25.063.27.167l7.605 21.355c.062.229 0 .333-.209.333h-4.354c-.146.02-.292-.084-.333-.23l-1.709-5zm-6.541-4.146h5.291a29.601 29.601 0 0 0-.479-1.5 62.757 62.757 0 0 1-.562-1.792c-.209-.646-.396-1.27-.605-1.916a45.042 45.042 0 0 1-.562-1.855c-.167-.583-.313-1.125-.458-1.625h-.042a25.58 25.58 0 0 1-.708 2.688c-.313 1-.625 2.041-.959 3.083a32.43 32.43 0 0 1-.916 2.917zm25.5 2.229h-6.605a4.59 4.59 0 0 0 .646 1.854c.375.563.896 1 1.521 1.25a6.48 6.48 0 0 0 2.667.521c.729-.02 1.458-.083 2.166-.23a7.824 7.824 0 0 0 1.855-.478c.104-.084.166-.042.166.166v3.188c0 .083-.02.166-.041.25a.487.487 0 0 1-.146.146c-.667.291-1.354.5-2.084.625-.979.187-1.958.27-2.958.25-1.583 0-2.916-.25-4-.73a7.015 7.015 0 0 1-2.625-1.979 7.645 7.645 0 0 1-1.437-2.729c-.292-.979-.438-2-.438-3.041 0-1.125.167-2.23.521-3.313.333-1.042.854-2 1.563-2.854a7.55 7.55 0 0 1 2.52-1.98c.98-.479 2.146-.645 3.48-.645a7.526 7.526 0 0 1 3.229.646 5.738 5.738 0 0 1 2.187 1.666c.542.709.98 1.5 1.25 2.375.271.834.396 1.688.396 2.542 0 .5-.02.938-.042 1.333-.041.396-.062.688-.083.875-.02.146-.146.271-.292.271-.125 0-.354.021-.687.042a9.86 9.86 0 0 1-1.209.062c-.479 0-.979-.083-1.52-.083zm-6.605-3.042h4.396c.542 0 .938 0 1.188-.02.166-.021.333-.063.479-.167v-.209c0-.27-.042-.52-.125-.77a2.757 2.757 0 0 0-2.708-1.917 2.934 2.934 0 0 0-2.771 1.583c-.25.48-.396.98-.459 1.5z" fill="#99F"/></g></svg>