<svg width="48" height="48" xmlns="http://www.w3.org/2000/svg"><g transform="translate(4)" fill="none"><path d="M14.602 6.392H3.966a3.916 3.916 0 0 0-3.903 3.915 3.79 3.79 0 0 0 3.79 3.904h10.863l-.114-7.82z" fill="#073042"/><path d="M38.83 41.192H3.953a3.916 3.916 0 0 1-3.89-3.904V10.282a3.916 3.916 0 0 0 4.155 3.929h28.926S38.83 13.718 38.83 18v23.192z" fill="#4285F4"/><path d="M20.413 22.408a2.173 2.173 0 1 0 .833 4.169 2.16 2.16 0 0 0-.833-4.169z" fill="#000"/><path d="M22.56 27.36a3.512 3.512 0 0 0-2.008-6.316h.113c.206-.02.413-.02.62 0v-2.172a.695.695 0 0 0-.33-.62.682.682 0 0 0-.694 0 .695.695 0 0 0-.328.62v2.21a3.524 3.524 0 0 0-1.541 6.316l-6.43 13.743h4.194l2.968-6.316a1.541 1.541 0 0 1 1.39-.871 1.516 1.516 0 0 1 1.377.871l3.056 6.316h4.245L22.56 27.36zm-2.147-.619a2.173 2.173 0 0 1-1.529-3.701 2.16 2.16 0 0 1 3.701 1.528c0 1.2-.972 2.173-2.172 2.173z" fill="#3870B2"/><path fill="#FFF" d="M12.3031579 8.31157895L27.2210526 8.31157895 27.2210526 11.0526316 12.3031579 11.0526316z"/><path d="M19.25 22.408a2.16 2.16 0 1 1-1.54.632c.41-.405.964-.631 1.54-.632zm.86-1.263v-2.273a.695.695 0 0 0-.329-.62.682.682 0 0 0-.695 0 .695.695 0 0 0-.328.62v2.21a3.524 3.524 0 0 0-1.541 6.316L9.145 44.766a1.92 1.92 0 0 0 .14 1.933c.397.566 1.065.88 1.755.821a1.907 1.907 0 0 0 1.566-1.137l5.381-11.558c.26-.531.799-.869 1.39-.871a1.516 1.516 0 0 1 1.377.871l5.52 11.495a1.91 1.91 0 0 0 3.435-1.667L21.398 27.36a3.499 3.499 0 0 0 1.263-3.499 3.537 3.537 0 0 0-2.526-2.703" fill="#073042"/><path d="M25.061 10.724a1.01 1.01 0 0 1-.733-1.73 1.023 1.023 0 0 1 1.744.72 1.01 1.01 0 0 1-1.01 1.01m-11.23 0a1.01 1.01 0 0 1-.72-1.73 1.023 1.023 0 1 1 1.44 1.44.998.998 0 0 1-.72.29m11.595-6.126l2.021-3.512a.43.43 0 0 0-.732-.43L24.669 4.22a12.733 12.733 0 0 0-10.433 0L12.176.657a.43.43 0 0 0-.365-.215.467.467 0 0 0-.367.215.43.43 0 0 0 0 .43l2.034 3.51a12.025 12.025 0 0 0-6.215 9.614h24.38a12.025 12.025 0 0 0-6.216-9.613" fill="#3DDC84"/><path d="M35.33 21.701h-1.604a.202.202 0 0 0-.202.202V47.23c0 .107.083.196.19.203h1.654a3.512 3.512 0 0 0 3.5-3.512V18.19A3.512 3.512 0 0 1 35.33 21.7z" fill="#073042"/></g></svg>