<svg width="48" height="48" xmlns="http://www.w3.org/2000/svg"><g transform="translate(0 4)" fill="none"><path d="M14.574 24.94c.011.621.21 1.828.506 2.77.625 1.995 1.684 3.84 3.158 5.467 1.512 1.672 3.374 3.015 5.525 3.968a17.76 17.76 0 0 0 7.256 1.508c2.54-.004 4.99-.524 7.251-1.533 2.151-.962 4.012-2.311 5.522-3.984 1.473-1.633 2.53-3.482 3.156-5.477.315-1.008.514-2.03.594-3.057a13.936 13.936 0 0 0-.099-3.037 14.116 14.116 0 0 0-2.013-5.51 15.372 15.372 0 0 0-3.673-4.049l.004-.003L26.896.59l-.038-.03c-.975-.749-2.615-.746-3.688.004-1.084.759-1.208 2.014-.243 2.805l-.004.004 6.2 5.042-18.897.02h-.025c-1.562.002-3.064 1.026-3.36 2.321-.306 1.32.755 2.414 2.379 2.42l-.003.006 9.578-.019-17.09 13.119-.066.049C.026 27.565-.495 29.618.52 30.917c1.03 1.321 3.222 1.324 4.85.008L14.7 23.29s-.136 1.03-.125 1.649z" fill="#EA7600"/><path d="M38.543 28.391c-1.922 1.958-4.613 3.068-7.524 3.074-2.916.005-5.606-1.095-7.528-3.05a8.95 8.95 0 0 1-2.055-3.216 8.352 8.352 0 0 1-.472-3.593 8.485 8.485 0 0 1 1.03-3.384 9.324 9.324 0 0 1 2.286-2.718c1.869-1.522 4.247-2.347 6.735-2.35 2.49-.003 4.867.813 6.737 2.33a9.288 9.288 0 0 1 2.283 2.71 8.49 8.49 0 0 1 1.034 3.382 8.372 8.372 0 0 1-.473 3.591 8.992 8.992 0 0 1-2.053 3.224z" fill="#FFF"/><path d="M24.805 21.733c.089-1.587.866-2.985 2.039-3.976 1.15-.974 2.697-1.569 4.386-1.569 1.687 0 3.234.595 4.385 1.569 1.171.99 1.949 2.39 2.038 3.974.09 1.631-.566 3.146-1.716 4.269-1.172 1.142-2.84 1.859-4.707 1.859-1.868 0-3.539-.717-4.71-1.859-1.151-1.123-1.805-2.638-1.715-4.267z" fill="#265787"/></g></svg>