<svg width="48" height="48" xmlns="http://www.w3.org/2000/svg"><g fill="none"><path d="M6.55 20.965c-1.397.658-5.097 3.618-5.81 4.495-.74.877-.96-.493-.192-2.768.603-1.837 2.138-4.33 4.715-6.469 1.507-1.233 4.823-3.015 6.852-4.056.41-.22 5.728-2.467 10.47-3.59.411-.11-.493.684-.63 1.123-.713 2.083-14.938 11.018-14.938 11.018l-.466.247zm20.037 25.134c.246 1.48.027 1.59-1.508 1.781-1.535.192-2.659-.383-3.07-.767-.41-.384-.493-1.233-.082-2 .247-.494.494-.659.63-1.262.138-.575.247-.712.357-.932.11-.192.137-.383.164-1.726.028-1.343 0-3.865.137-4.934.138-1.096 4.88.493 4.88.493s-1.125 2.796-1.426 3.481c-.302.686-.274 2.001-.274 2.275s-.11.822-.192.85c-.082.027.274.74.11 1.151-.11.384.246 1.37.274 1.59zM28.396 4.19c-.165-1.042 0-3.098.219-3.426.685-.932 4.303-1.042 5.07.054.33.494.302 1.645.247 2.385-.055.74-.246 2.33-.274 2.85-.027.384-4.002.987-4.879-.054-.246-.274-.383-1.81-.383-1.81zm8.058 39.25c1.672 1.205 2.96 1.424 3.81 1.863.85.439.63 1.288-.795 1.535-1.151.22-2.96-.22-4.166-.22-1.206 0-3.892.138-4.605-.356-.822-.575-.466-1.644-.466-1.644.22-.603.767-1.946.603-3.043-.165-1.096-.384-1.699-.795-2.713-.411-1.014-.713-3.508-.329-3.645.384-.138.274 0 .768.11.493.109 1.041.273 2.11.273 1.07 0 2.248-.164 2.659-.246.411-.083.74-.165.603.685-.137.85-.548 2.44-.576 3.673-.027 1.233-.027 2.658.055 2.905.082.247.685.52 1.124.822z" fill="#000"/><g fill="#88CE02"><path d="M30.588 6.932c-3.015 2.604-8.853 3.316-17.514 6.66-2.22.85-8.14 3.399-9.566 6.057 4.797-2.768 6.579 1.042 6.962 4.961.356 3.673 2.193 5.592 6.907 5.482 4.852-.11 6.332 2.714 7.675 6.03 2.604-12.69 6.77-15.157 9.456-17.322 5.7-4.632-1.316-12.8-3.92-11.868z"/><path d="M30.588 6.932c-7.236 2.521-14.39 3.152-22.804 8.332-2 1.233-6.222 4.029-7.044 9.374 3.07-3.399 10.169-7.675 18.857-10.388 4.386-1.37 7.593-2.275 11.485-3.783-.274-1.754-.274-2.44-.494-3.535z"/></g><path d="M39.825 21.952s-.52 1.781-1.562 2.357c0 0-.768.274-2.302-.576-.439-.246-.768-1.096-.74-1.37.027-.658.438-.96.438-.96s.439-.74.96-.712c.52.027 1.397.11 1.671-.137.247-.274 1.59.493 1.535 1.398zM28.642 4.712s-.11 1.397-.301 2.274c-.028.165-.85.247-1.453.494 1.151 3.289 8.086 3.261 8.99 1.644a11.942 11.942 0 0 0-1.726-.931c-.412-.165-.384-.138-.412-.905-.027-.768-.082-2.193-.137-2.577-.055-.383-4.303-.383-4.96 0z" fill="#000"/><path d="M28.916 4.711s0 .795-.082 1.563a6.46 6.46 0 0 1-.11.85c-.027.164.932.822 1.207 2.274 1.315 2.933 4.358 1.48 5.618.083a10.593 10.593 0 0 0-1.973-1.042c-.411-.165-.22-.52-.247-1.288a30.916 30.916 0 0 0-.191-2.303c-.056-.41-3.564-.52-4.222-.137z" fill="#EFEFEF"/><path d="M28.642 4.711s-.027.494-.11 1.07c.357.356.823.85 1.18 1.15.246.22.849.193 1.397.193.494 0 .932.054 1.124-.055.439-.22 1.069-.768 1.425-1.179-.027-.493-.055-.96-.082-1.179-.028-.383-4.276-.383-4.934 0z" fill="#000"/><path d="M31.137 6.795c-.33 0-.713-.028-1.015-.083-.137-.027-.274-.11-.383-.164-.192-.137-.384-.302-.603-.466-.439-.329-.466-.52-.466-.603a12.752 12.752 0 0 0-.055-3.18s-.192-.74.85-.931c1.041-.192 1.671-.22 1.671-.22s.658 0 1.672.22c1.042.191.85.932.85.932s-.247 1.452-.055 3.179c0 .082-.027.274-.466.603-.384.274-.685.575-.986.63a6.07 6.07 0 0 1-1.014.083z" fill="#000"/><path d="M31.137.436c-1.81 0-2.166.493-2.687 1.041-.11.137-.027.96.165 2.714h.247s-.165-.494-.138-1.07c.028-.575.138-.547.055-.684-.11-.165-.329-.44.165-.713.493-.274 1.26.22 2.193.247.931-.028 1.726-.521 2.22-.247.493.274.274.548.164.713-.11.164.027.11.055.685a3.283 3.283 0 0 1-.137 1.069h.246c.165-1.754.275-2.522.192-2.659-.466-.603-.932-1.069-2.74-1.096zm8.688 21.598s-.52 1.672-1.535 2.247c-.22-.11-.192-.274-.384-.52-.054-.083-.246-.138-.328-.22-.083-.082-.055-.219-.192-.329-.11-.11-.192-.027-.302-.11-.11-.109-.137-.246-.22-.328-.054-.055-.273-.082-.328-.137-.137-.137-1.343-.384-1.288-.658.11-.411.329-.713.329-.713s.52-.767 1.041-.74c.52.028 1.014.137 1.288-.11.302-.273 2.001.74 1.919 1.618z" fill="#000"/><path d="M36.262 9.92s1.727-.412 2.905.712c1.179 1.151 1.097 2.576.74 3.453.302.357.85 1.343.439 2.522 1.809 1.535 1.014 3.892-.603 5.454 0 0-.384-1.425-1.919-1.507.055-.548-1.425-.987-.74-2.412-1.041-.247-1.014-.96-1.178-1.837-.137-.877.356-6.386.356-6.386z" fill="#000"/><path d="M35.632 10.687s2-1.014 3.179.137c1.178 1.151.85 2.412.493 3.289.302.356 1.014 1.37.576 2.576-.082.274-.685.274-1.124.987 1.096-.63 1.782-.466 2.028.329.384 1.233-.466 2.713-1.206 3.535 0-.027-.027-.054-.027-.082-.11.411-.247 1.206-1.069 2.083-.411.439-.74.384-1.206.274-.548-.137-.74-.384-1.508-.795-.438-.246-.191-.548-.191-.794 0-.055.054-.138.137-.247.054-.137.219-.356.466-.603 0 0 .356-.493.877-.466.52.027 1.069-.082 1.206-.22 0-.959-1.097-.986-.713-2.63.028-.083.165-.22.603-.275-.658-.137-.96-.164-1.425-.603a2.023 2.023 0 0 1-.658-1.178c-.164-.85-.438-5.317-.438-5.317z" fill="#EFEFEF"/><path d="M29.848 8.96a4.957 4.957 0 0 0-2.631-1.754c-.466-.137-.767.246-1.233.52-.137-.082-.74-.356-1.07-.164-.328.192-.547.384-.876.52-.165-.082-.603-.082-.96.055-.356.11-.904.357-1.425 1.07-.329 1.178 5.81.3 5.81.3l2.385-.547z" fill="#000"/><path d="M29.903 8.96c-.877-.302-.74-1.316-2.686-1.48-.384-.028-.63.274-.905.466.138.137.275.356.357.575-.247-.274-.685-.63-1.124-.712-.411-.082-.685.219-1.124.438.082.082.165.22.274.384-.384-.247-.658-.329-1.178-.137a3.027 3.027 0 0 0-1.563 1.151c-.329 1.179 5.537-.137 5.537-.137l2.412-.548z" fill="#88CE02"/><path d="M35.056 9.398s0-.301-.027-.575c0-.055-.22-.192-.22-.247l-.054-.055s.438-.246.767-.11c.356.11.548.576.548.576.63-.219.685.028.987.357.658-.137.74.11 1.151.712 0 0-.493-.082-1.453.082-.932.137-1.699-.767-1.699-.74z" fill="#000"/><path d="M34.946 9.261s.165-.137.11-.164c.301-.165.712-.356.904.164.63-.219.713.083 1.014.412.768-.357.823.082.878.274-.247 0-.603.027-1.097.082-.932.137-1.836-.795-1.809-.768z" fill="#88CE02"/><path d="M25.627 8.576s1.563.548 2.878.466c1.316-.11 3.563-.22 4.77.493 0 0 1.233-.438 2.384-.137 1.151.302 3.262 2.275 2.631 4.358-.055.137-.41.357-.822.494 0 0 .22.932-.164 1.699-.384.74-1.234 2.165-1.261 4.139-.028.329-.082 1.014-.137 1.343-2.138-.082-5.427-.877-8.661-.822.027-.357.054-.576.082-.932h.082c-.165-.905-.22-1.37-.384-2.056-1.041-.658-2.138-1.425-3.07-2.878-.904-1.453 1.672-6.167 1.672-6.167zm10.58 14.8s1.7 6.086-.301 8.635c0 0 .301 1.178-.384 2.44-.11.547-.247 1.04-.329 1.589-.356 2.275-.96 3.234-1.124 6.88l-1.644-.028s-.192-2.631-.768-4.03c-.329-.794-1.617-1.863-1.562-2.932.055-.822.22-1.507 1.617-2.604.11-1.59-1.48-3.097-1.233-9.017l5.728-.932z" fill="#000"/><path d="M35.714 23.13c.438 2.796 1.452 6.935-.384 8.963.082.384.137.932.027 1.562a6.392 6.392 0 0 1-.301 1.069c-.274.658-.384 1.617-.466 2.193-.356 2.275-.356 2.384-.52 6.03l-1.645-.028s-.192-2.631-.768-4.029c-.329-.795-1.014-1.48-1.069-2.549-.054-.822.521-2.466 1.892-2.412-.083-3.316-1.618-2.658-2.029-9.565l5.263-1.234zM25.627 8.576s.603.192 1.261.247c.658.055 1.37 0 2-.028 1.317-.11 3.18-.246 4.414.466 0 0 .685-.219 1.425-.164.329.027.658.301 1.042.411 1.206.301 2.357 2.302 1.836 4.111-.055.137-.439 0-.877.137.082.384.137 1.261-.302 2.193-.466.932-1.069 2.138-.96 4.44-2.877-.137-4.165-.328-7.016-.466-.246-1.014-.411-2.028-.438-2.549.383-.191.603-.356.904-.685-.822.137-1.15.082-1.644-.192s-1.37-1.15-1.81-1.726c-.054-.055-.356.85-1.04.877-.248-.357.794-1.37.602-1.754-.685-1.398.603-5.318.603-5.318z" fill="#EFEFEF"/><path d="M35.933 20.855s.055.987.055 1.234c0 .274.219 1.096.246 1.48-.301.52-1.617 1.7-4.001 2.138-2.357.493-5.482-3.207-5.482-3.207.082-.356.356-1.398.548-1.946a.87.87 0 0 0 .082-.247c.247-.356 8.552.548 8.552.548z" fill="#000"/><path d="M35.33 20.938c0 .685.11 1.178.192 1.617.137.795.356 1.315.356 1.836 0 1.59-2.083 1.316-3.837 1.37-2.357.494-4.358-3.206-4.358-3.206.164-.63.274-1.343.52-1.946.028-.33.083-.74.11-.932 3.344 0 5.701.192 7.072.329.055.301 0 .822-.055.932z" fill="#EFEFEF"/><path d="M32.699 24.473s-1.453-3.234-5.811-2.275c-1.041 2.933-2.44 6.304-1.535 9.95-.904 1.233-1.946 1.919-1.946 4.193 0 2.275.11 2.659.11 2.659l3.207.165s1.041-1.343 1.452-2.796c.11-.411.22-1.151.137-2 .11-.165.576-.549.63-1.29 0 0 1.563-.821 2.468-2.822.85-1.81.63-3.372 1.288-5.784z" fill="#000"/><path d="M32.699 24.473c-.082-.301-1.179-3.261-5.235-2.384-2.385 6.359-1.508 8.99-1.152 10.14-1.617 2.056-2.357 2.495-2.028 6.661h2.138c.987-1.562 1.206-2.138 1.261-4.193 0-.083-.301.164-.52.438.164-.85.63-1.014.986-1.535.164-.219.301-.548.301-.986 1.919-1.289 2.632-2.906 3.043-4.578.329-1.15.712-3.042 1.206-3.563z" fill="#EFEFEF"/><path d="M25.929 20.06s.74.028 1.398.247c.63.22.63.356.877.63.247.275.85.686.74 1.097-.055.22-.192.274-.384.466-.082.082-.685.74-.822.822-.082.055-.192.137-.274.192l-.411.274c-.274.137-.466.22-.768.192 0 0-.685-.028-1.124-.493 0 0-.054-.22.055-.33 0 0-.575-.493-.74-.822-.164-.328-.164-.794-.055-1.041.055-.247 1.124-.932 1.508-1.234zm.685 26.67l-.082.685s-.247.301-2.083.274c-1.864-.028-2.357-.603-2.522-.905l-.11-.713s.357-.52.44-.52c.602.054 2.658.877 4.083 1.096.137 0 .164.055.274.082zm3.974-1.399c0 .302-.027.302-.027.603.329.247 1.151.384 2.713.357 2.275-.055 4.386.685 6.962.246l.028-.493-.247-.027-9.127-.74-.302.054z" fill="#000"/><path d="M32.59 46.29h.684c1.48-.054 2.878.275 4.386.357.795-.027 1.781-.22 1.7-.795l-7.785-.658c-.466.521-.11.96 1.014 1.097zm-8.936-11.538c.247.164 1.918 1.15 4.632 1.014-.055.52-.028 1.535-1.233 3.316-.603.877-1.124 2.412-1.234 4.358.028.439.274.822-.055 1.398.11.356.548 1.069.768 1.507.219.44.329.932-1.124.96-1.48.027-3.865-.137-3.536-1.288.165-.603.63-1.234.686-1.48.054-.247.054-.987.52-1.48.411-1.37.274-2.687.192-3.92-.137-1.288-.164-3.344.384-4.385zm2.549-22.339c1.946-2.604.301-4.686-2.823-4.056-1.261.246-2.522 1.124-2.604 2.713-.411.055-1.343.11-1.809 1.81-.356 1.315-.548 1.562-1.179 2.22-.41.465.028 1.425.33 2.11 1.013 2.357 4.138 2.576 6.249 4.358.712-.192 1.452-.987 1.671-1.508-1.781-2.11-1.398-2.932-2.11-4.029.767-.274 2.522-1.343 2.275-3.618z" fill="#000"/><path d="M25.82 12.249c.109-.165.3-.52.383-.658.027-.027.329.493.356.466.74-1.206.932-2.96.082-3.125a4.858 4.858 0 0 1-.85-.219c-.547-.192-1.04-.192-1.918-.027-1.206.219-2.412 1.096-2.412 2.357 0 .082.85.329 1.096 1.343-.41-.576-1.123-1.206-1.973-.658-.905.576-.439 1.891-1.645 3.262-.41.466-.356 1.014.083 2.11.712 1.727 4.084 2.659 5.92 4.303.438-.192.74-.63.96-.959-1.234-1.288-1.728-2.494-2.084-3.371-.438-1.014-.932-1.59-1.891-2.358.493.192.877.384 1.096.549.247.164.603.191.932.082 1.179-.411 1.81-2.056 1.864-3.097z" fill="#EFEFEF"/><path d="M37.742 12.687c-.082 1.042-.85.521-1.26.33-.823-.357-1.645-.604-2.605-.604-.959 0-2.192.083-3.261.357-1.48.41-1.919.383-2.577.054-.657-.356-1.809-1.233-1.809-1.233s-.027.274.247.63c.356.439 1.151.987 2.22 1.343.52.165.932.055 1.398-.054 2.44-.603 5.016-.713 7.181.603.11.054.494-.11.658-.357.22-.356-.192-1.069-.192-1.069z" fill="#000"/><path d="M25.271 23.13c.22.137.493.22.795.466 0 0-.247 0-.356-.11a3.868 3.868 0 0 1-.439-.356z" fill="#001423"/><path d="M33.192 1.395C33.11 1.148 32.507.71 31.11.71c-1.507 0-1.946.466-1.973.712 0 .083-.11.96-.137 1.316 0 0 0 .439.027 1.096.027.439.137.685.192 1.261.055.603.22.987.52 1.48.138.082.247.165.384.192.549.11 1.508.137 2.029 0 .301-.082.685-.603.767-1.069.11-.575.22-.987.247-1.343.054-.356.082-1.151.11-1.37.082-.603-.056-1.535-.083-1.59z" fill="#EFEFEF"/><path d="M30.314 35.272s1.453.63 5.044.083c0 0-1.015 5.098-.549 7.647 0 0 .466.657 3.92 1.918 0 0 1.535.384 1.48 1.151 0 0 .055.165-1.809.11-1.864-.055-3.618-.384-4.851-.384-1.234 0-2.55.055-2.769-.301-.246-.329.055-1.179.411-1.672.384-.52.275-.905.247-1.837-.082-2.439-1.946-4.96-1.124-6.715z" fill="#000"/><path d="M30.013 35.738c-.192.274.027 1.316.301 2.33.274 1.014.877 1.617 1.014 3.29.137 1.644.165 1.863-.301 2.822-.466.96-.603 1.836 1.014 1.864 1.617.027 2.494-.028 4.139.22 1.644.246 2.22.328 3.124.191.905-.137 1.097-.439.713-.713-.384-.274-1.974-.575-2.659-1.123-.658-.494-2.521-1.316-2.549-1.535-.082-.74-.11-3.426.028-4.303.137-.878.329-2.138.383-2.467.055-.33.33-.658-.137-.548-.466.11-2.22.356-3.535.274-1.316-.082-1.453-.384-1.535-.302z" fill="#88CE02"/><path d="M30.945 44.208c.466.219 1.15.383 1.672.383 0 0-.192.905.11 1.453.3.548-2.194.22-2.194.22l-.11-1.947.522-.11zm7.263 2.357c.439-.137.74-.63.384-1.096-.384-.466-.713-.549-.22-.576.494-.027 2.303 1.069 2.303 1.069l-.932.85-1.535-.247zm-8.278-9.758c.63.22 1.59.274 2.413.247.822-.027 2.055-.137 2.85-.411.795-.274.466.301.466.301l-.439.411s-1.041.411-2.74.384c-2.001-.027-2.604-.246-2.604-.246l.054-.686zm.055 1.37c.63.22 1.59.275 2.412.247.822-.027 1.919-.027 2.714-.328.329-.11.137.356.137.356l-.137.246s-1.07.384-2.741.357c-2.001-.028-2.357-.192-2.357-.192l-.028-.685z" fill="#000" opacity=".3"/><path d="M30.314 35.272s2.385.85 5.071.274c0 0-1.042 4.907-.576 7.428 0 0 .466.658 3.92 1.919 0 0 1.535.384 1.48 1.151 0 0 .055.165-1.809.11-1.864-.055-3.618-.384-4.851-.384-1.234 0-2.55.055-2.769-.302-.246-.328.055-1.178.411-1.672.384-.52.275-.904.247-1.836-.082-2.412-1.946-4.933-1.124-6.688z" fill="none"/><path d="M30.314 35.272s2.385.823 5.071.247c0 0-1.042 4.934-.576 7.455 0 0 .466.658 3.92 1.919 0 0 1.535.384 1.48 1.151 0 0 .055.165-1.809.11-1.864-.055-3.645-.576-4.851-.384-1.289.22-2.55.137-2.769-.302-.192-.356.055-1.178.411-1.672.384-.52.275-.904.247-1.836-.082-2.412-1.946-4.933-1.124-6.688z" fill="none"/><path d="M28.176 18.964c0 .192 2.138 1.26 3.317 1.48 1.178.22 3.645 0 4.029-.082l-.055.384s-2.933.438-5.18-.165c-2.248-.603-2.001-.74-2.001-.74l-.11-.877z" fill="#000"/><g fill="#EFEFEF"><path d="M23.599 42.344c.329.164 1.507.466 2.275.301.11-.027 0-1.89.301-2.74.439-1.18 1.152-2.139 1.48-4.221a17.174 17.174 0 0 1-3.152-.631c-.877 2.686-.575 4.988-.904 7.29zm1.836 1.727c.192.054.33.274.384.137.11-.247-.192-.713-.22-1.042v-.027c-.246-.22-1.918-.247-1.808-.137-.192.356-.493.301-.603 1.014-.055.356.384.055.795.027-.74.494-1.59 1.124-1.727 1.672-.164.768.11.987.932 1.398.713.165 1.562.192 2.22.165.74-.138.877-.494.658-.987-.33-.74-.548-1.7-.63-2.22z"/></g><path d="M25.737 8.466c.904.521 2.165.384 2.631.357.11 0 1.206-.192 1.261-.165.11.028.11.11.11.11s-.412.22-1.343.274c-.877.055-1.919 0-2.495-.274-.685-.302-.164-.302-.164-.302zm9.319.521c.164.11 1.233.521 1.7 1.014.41.439.191.412.109.302-.11-.137-.96-.713-1.288-.85-.33-.137-.74-.384-.74-.438 0-.055.219-.028.219-.028z" fill="#000"/><path d="M25.6 20.362c.795-.055 1.617.137 2.138.685.274.274.712.576.658.85 0 .082-.165.301-.302.466-.082.11-.329.356-.411.438-.11.082-.493.384-.576.439-.082.055-.191.192-.274.22-.274.136-.575.027-.85-.11-.273-.138.056-.165-.246-.384-.74-.52-1.151-.877-.85-1.891.028-.192.33-.412.713-.713z" fill="#EFEFEF"/><path d="M18.61 14.085c-2.466.987-8.743 4.112-10.524 5.071 1.48.932 2.165 3.18 2.384 5.454.028.22.055.412.082.63.028.193.055.33.083.412 0 .027 0 .082.027.11 1.617-4.413 7.4-9.073 7.62-9.43.11-.164-.137-.876.246-1.561.494-.878 1.453-1.261.083-.686zm5.866 20.694c1.26-2.522 1.288-4.934 1.26-7.757 0-1.178.85-2.85.412-2.384-1.645 1.836-5.783 5.29-8.77 5.481 4.193-.137 5.837 1.974 7.098 4.66z" fill="#000" opacity=".4"/><path d="M5.674 21.486c1.562-1.124 9.648-5.427 11.594-6.03 1.946-.63 1.343-1.37 1.343-1.37s-7.894 3.398-12.609 6.33" fill="#000"/><path d="M28.697 13.565c-.63-.247-1.124.493-.96 1.206.165.712 1.645 1.507 1.563 4.111-.055 2.138-.52 3.015-.52 3.015l-1.042-1.316s-.165-2.96-.521-3.398c-.356-.439-1.48-1.234-1.919-1.645-.438-.411.494-.96.439-1.727-.055-.74.466-2.22.466-2.22l2.494 1.974zm3.81 11.676c-.055 2.055.411 5.098.603 6.55.192 1.453.438 1.563 0 2.22-.439.631-1.014 1.673-1.014 1.673l-1.891-.165s1.507-1.919 1.59-2.275c.081-.356-.768-3.07-.768-3.07l1.48-4.933zM28.862 6.055c.383.85.85 1.233 1.59 1.48.438.164 2.164.383 2.85-.384.301-.356.11-1.316.11-1.316l-1.563 1.26-2.11-.383-.247-.63-.63-.027z" fill="#000" opacity=".4"/><path d="M29.026 7.946c.713.466 2.494.904 2.987.986.494.11 1.289-.52 1.672-.685.412-.192 1.124-.301 1.947.439.082.082-.192.438-.192.438-.028-.027-.192-.027-.412-.137-.219-.11-.41-.192-.74-.164-1.37.164-1.59.63-2.795.356-1.206-.274-1.508-.493-2.686-.439" stroke="#000" stroke-width=".5" fill="#88CE02" stroke-linejoin="round"/><path d="M28.78 8.028c.904.384 2.658.795 3.151.904.494.11 1.288-.383 1.672-.63.686-.439 1.563-.082 1.974.384.274.301.384.493.384.575 0 .11-.33 0-.33 0-.191-.082-.41-.11-.575-.219-.22-.11-.439-.274-.767-.247-1.37.165-1.645.63-2.823.357-1.179-.274-1.48-.521-2.741-.439" fill="#88CE02"/><path d="M24.53 33.628c-.054-.055.056-.11 0-.11-.355 0-.849-.274-1.123-.658-1.178-1.699-2.905-2.823-6.03-2.74-4.687.109-6.55-1.81-6.907-5.482-.192-2.001-.74-3.947-1.864-5.044l-.658.412c1.261 1.096 1.672 2.878 1.946 5.317.439 3.673 3.4 5.372 6.853 5.427 3.59.055 4.878.795 6.221 2.604.439.575.932.767 1.316.85l.247-.576z" fill="#000"/><path d="M37.249 16.004c.082.411.301 1.206.74 1.59.192.191.219.246.055.246-.165 0-1.371-.055-1.371-.055l-.329-.575.905-1.206z" fill="#000" opacity=".4"/></g></svg>