<svg width="48" height="48" xmlns="http://www.w3.org/2000/svg"><g transform="translate(0 1)" fill="none"><path d="M8.5 0h31C44.2 0 48 3.8 48 8.5v29.8c0 4.7-3.8 8.5-8.5 8.5h-31C3.8 46.8 0 43 0 38.3V8.5C0 3.8 3.8 0 8.5 0z" fill="#300"/><path d="M24.23 29.25h-7.75l-1.584 4.896a.365.365 0 0 1-.396.291h-3.917c-.229 0-.291-.124-.229-.374l6.709-19.313c.062-.208.125-.438.208-.688.083-.437.125-.895.125-1.354-.021-.104.062-.208.166-.229h5.396c.167 0 .25.063.271.167l7.604 21.458c.063.23 0 .334-.208.334h-4.354c-.146.02-.292-.084-.334-.23L24.23 29.25zm-6.543-4.23h5.292a29.601 29.601 0 0 0-.479-1.5 62.757 62.757 0 0 1-.563-1.79c-.208-.647-.395-1.272-.604-1.918a45.042 45.042 0 0 1-.562-1.854c-.167-.583-.313-1.125-.459-1.625h-.041a25.58 25.58 0 0 1-.709 2.688c-.312 1-.625 2.041-.958 3.083a40.888 40.888 0 0 1-.916 2.917zm17.688-8.978a2.578 2.578 0 0 1-1.854-.73 2.706 2.706 0 0 1-.709-1.916c-.02-.709.25-1.375.75-1.854.5-.48 1.167-.73 1.855-.73.812 0 1.437.25 1.895.73.459.5.709 1.166.688 1.854.02.708-.23 1.396-.73 1.916-.478.5-1.187.771-1.895.73zm-2.333 18.083V18.083c0-.208.083-.291.27-.291h4.126c.187 0 .27.104.27.291v16.042c0 .23-.083.333-.27.333h-4.084c-.208 0-.312-.125-.312-.333z" fill="#FF9A00"/></g></svg>