<svg width="48" height="48" xmlns="http://www.w3.org/2000/svg"><g transform="translate(0 1)" fill="none"><path d="M8.5 0h31C44.2 0 48 3.8 48 8.5v29.8c0 4.7-3.8 8.5-8.5 8.5h-31C3.8 46.8 0 43 0 38.3V8.5C0 3.8 3.8 0 8.5 0z" fill="#49021F"/><path d="M18.167 12.75v21.375c0 .23-.105.333-.292.333h-4.083c-.188 0-.271-.104-.271-.333V12.75c0-.188.104-.27.291-.27h4.063c.125-.022.25.062.27.207.022.021.022.042.022.063zm12 22.042a10.357 10.357 0 0 1-4.48-.938c-1.312-.604-2.395-1.604-3.145-2.833-.771-1.271-1.146-2.854-1.146-4.75a8.556 8.556 0 0 1 1.146-4.396 8.652 8.652 0 0 1 3.312-3.23c1.459-.812 3.209-1.207 5.271-1.207.104 0 .25 0 .438.02.187.021.395.021.645.042v-6.583c0-.146.063-.23.209-.23h4.229c.104-.02.187.063.208.146v19.875c0 .375.021.792.042 1.25.041.438.062.855.083 1.209 0 .145-.062.27-.208.333a15.91 15.91 0 0 1-3.396 1 18.195 18.195 0 0 1-3.208.292zm2.041-4.167v-9.167c-.187-.041-.375-.083-.562-.104a7.608 7.608 0 0 0-.688-.041c-.812 0-1.625.166-2.354.541a4.67 4.67 0 0 0-1.77 1.542c-.459.666-.688 1.562-.688 2.646-.021.729.104 1.458.354 2.145.208.563.52 1.063.938 1.48a3.6 3.6 0 0 0 1.416.833c.563.188 1.146.27 1.73.27.312 0 .604-.02.874-.04.271.02.521-.022.75-.105z" fill="#F36"/></g></svg>