<svg width="48" height="48" xmlns="http://www.w3.org/2000/svg"><g fill="#478AFF"><path d="M24 13.297c-5.96 0-10.792 4.865-10.792 10.865S18.04 35.027 24 35.027s10.792-4.864 10.792-10.865C34.785 18.165 29.957 13.304 24 13.297z"/><ellipse cx="39.495" cy="9.311" rx="4.916" ry="4.949"/><path d="M45.548 14.286l-.206-.454-.322.377a7.408 7.408 0 0 1-2.967 2.056l-.322.117.129.324c3.582 8.673.51 18.684-7.307 23.812-7.818 5.127-18.155 3.911-24.588-2.892S2.835 20.368 8.306 12.76C13.777 5.152 23.861 2.555 32.29 6.584l.303.146.132-.325a7.454 7.454 0 0 1 2.184-2.883l.386-.324-.44-.23A23.288 23.288 0 0 0 23.996.31C13.489.313 4.239 7.285 1.278 17.436c-2.96 10.15 1.078 21.05 9.917 26.771a23.556 23.556 0 0 0 28.308-2.032c7.943-6.926 10.403-18.293 6.042-27.918l.003.03z"/></g></svg>