<svg width="48" height="48" xmlns="http://www.w3.org/2000/svg"><g fill="none"><path d="M33.438 29.488L28.44 34.49l-4.74 4.74-.924.932a10.65 10.65 0 0 1-10.094 2.794 6.429 6.429 0 0 1-6.26 4.98 6.42 6.42 0 0 1-1.484-12.668c-.892-3.52.032-7.41 2.792-10.16l.358-.36 4.74 4.74-.368.362c-1.538 1.558-1.538 4.048 0 5.578a3.904 3.904 0 0 0 5.574 0l.93-.93 4.734-4.742 5.004-5.012 4.736 4.744z" fill="#5091CD"/><path d="M35.286 42.792a10.637 10.637 0 0 1-10.656-2.636l-.36-.37L29 35.048l.36.368a3.947 3.947 0 0 0 5.574 0 3.93 3.93 0 0 0-.008-5.562l-.932-.93-4.73-4.74-5.004-5.006L29 14.44l4.998 5.01 4.734 4.74.928.928a10.56 10.56 0 0 1 2.822 10.042c3.12.448 5.518 3.12 5.518 6.36a6.408 6.408 0 0 1-6.418 6.42c-3.09 0-5.702-2.192-6.27-5.13l-.026-.018z" fill="#F44321"/><path d="M13.95 18.892l5.016-5.01 4.74-4.738.924-.922A10.588 10.588 0 0 1 35.16 5.55C35.584 2.428 38.27 0 41.518 0a6.422 6.422 0 0 1 .842 12.79 10.62 10.62 0 0 1-2.7 10.468l-.364.368-4.738-4.738.368-.368a3.934 3.934 0 0 0 0-5.566 3.931 3.931 0 0 0-5.562.006l-.924.922-4.74 4.738-5.01 5.004-4.74-4.732z" fill="#F9A541"/><path d="M8.644 24.186l-.922-.924a10.627 10.627 0 0 1-2.664-10.576C2.2 12.028.06 9.478.06 6.418.06 2.878 2.94 0 6.48 0a6.43 6.43 0 0 1 6.34 5.382c3.46-.81 7.252.13 9.958 2.83l.368.37-4.74 4.74-.366-.362a3.953 3.953 0 0 0-5.57 0c-1.542 1.562-1.54 4.05-.01 5.58l.93.932 4.74 4.738 5.01 5.01-4.734 4.74-5.02-5.01-4.742-4.74v-.024z" fill="#7AC143"/></g></svg>