<svg width="48" height="48" xmlns="http://www.w3.org/2000/svg"><path d="M24.28 48a3.665 3.665 0 0 1-1.844-.496l-5.873-3.476c-.877-.49-.45-.664-.16-.764 1.171-.408 1.408-.503 2.656-1.208.13-.073.301-.047.437.033l4.51 2.68a.58.58 0 0 0 .545 0l17.59-10.153a.55.55 0 0 0 .27-.476V13.839c0-.2-.104-.384-.272-.486L24.555 3.21a.563.563 0 0 0-.543 0L6.431 13.356a.573.573 0 0 0-.277.483v20.3c0 .196.108.38.277.47l4.818 2.786c2.615 1.306 4.217-.232 4.217-1.78V15.57c0-.282.229-.506.51-.506h2.232c.277 0 .507.224.507.506v20.046c0 3.488-1.899 5.49-5.208 5.49-1.017 0-1.817 0-4.051-1.1l-4.612-2.655A3.715 3.715 0 0 1 3 34.14v-20.3a3.7 3.7 0 0 1 1.844-3.205L22.434.47c1.113-.627 2.591-.627 3.695 0l17.59 10.166a3.712 3.712 0 0 1 1.846 3.205v20.3a3.725 3.725 0 0 1-1.846 3.21L26.13 47.506A3.66 3.66 0 0 1 24.28 48m5.437-13.987c-7.702 0-9.313-3.535-9.313-6.498a.51.51 0 0 1 .51-.507h2.274c.255 0 .465.181.505.43.341 2.316 1.368 3.484 6.024 3.484 3.703 0 5.281-.838 5.281-2.806 0-1.135-.448-1.975-6.205-2.54-4.814-.476-7.79-1.538-7.79-5.392 0-3.548 2.991-5.667 8.005-5.667 5.636 0 8.424 1.957 8.776 6.154a.52.52 0 0 1-.133.39.524.524 0 0 1-.372.162h-2.285a.506.506 0 0 1-.495-.396c-.55-2.438-1.879-3.216-5.494-3.216-4.044 0-4.514 1.412-4.514 2.464 0 1.28.554 1.651 6.017 2.374 5.405.716 7.974 1.726 7.974 5.527.002 3.841-3.194 6.037-8.765 6.037" fill="#83CD29"/></svg>