<svg width="48" height="48" xmlns="http://www.w3.org/2000/svg"><g transform="translate(0 1)" fill="none"><path d="M8.5 0h31C44.2 0 48 3.8 48 8.5v29.8c0 4.7-3.8 8.5-8.5 8.5h-31C3.8 46.8 0 43 0 38.3V8.5C0 3.8 3.8 0 8.5 0z" fill="#001E36"/><path d="M11.25 34.188V12.75c0-.146.063-.23.208-.23.354 0 .688 0 1.167-.02.5-.02 1.02-.02 1.583-.042.563-.02 1.167-.02 1.813-.041.646-.021 1.27-.021 1.896-.021 1.708 0 3.125.208 4.291.646A7.44 7.44 0 0 1 25 14.75a6.633 6.633 0 0 1 1.52 2.375c.313.875.48 1.77.48 2.708 0 1.792-.417 3.271-1.25 4.438a7.137 7.137 0 0 1-3.354 2.541c-1.417.521-2.98.709-4.688.709-.5 0-.833 0-1.041-.021-.209-.02-.5-.02-.896-.02v6.687c.02.145-.084.27-.23.291H11.5c-.167 0-.25-.083-.25-.27zm4.542-17.646v7c.291.02.562.041.812.041h1.104c.813 0 1.625-.125 2.396-.375a3.583 3.583 0 0 0 1.709-1.104c.437-.52.645-1.229.645-2.146a3.429 3.429 0 0 0-.479-1.854 3.021 3.021 0 0 0-1.458-1.187c-.771-.313-1.604-.438-2.459-.417-.541 0-1.02 0-1.416.02a4.77 4.77 0 0 0-.854.022zM40 22.27a7.374 7.374 0 0 0-2-.709c-.77-.166-1.542-.27-2.333-.27a4.195 4.195 0 0 0-1.25.145c-.271.063-.5.209-.646.417a1.104 1.104 0 0 0-.167.563c0 .187.084.375.209.541.187.23.437.417.708.563.479.25.979.479 1.479.687a15.09 15.09 0 0 1 3.208 1.521 4.848 4.848 0 0 1 1.646 1.73c.334.666.5 1.395.48 2.145.02.98-.272 1.959-.813 2.771a5.22 5.22 0 0 1-2.334 1.854c-1.02.438-2.27.667-3.77.667-.959 0-1.896-.084-2.834-.271a8.404 8.404 0 0 1-2.125-.667c-.145-.083-.25-.229-.229-.395v-3.626c0-.062.021-.145.084-.187.062-.042.125-.02.187.02.813.48 1.667.813 2.583 1.022a9.699 9.699 0 0 0 2.459.312c.791 0 1.354-.104 1.729-.291a.968.968 0 0 0 .562-.875c0-.292-.166-.563-.5-.834-.333-.27-1.02-.583-2.041-.979a12.747 12.747 0 0 1-2.959-1.5 5.394 5.394 0 0 1-1.583-1.77 4.47 4.47 0 0 1-.48-2.126c0-.896.25-1.75.71-2.52a5.135 5.135 0 0 1 2.187-1.917c.979-.5 2.208-.73 3.687-.73.854 0 1.73.063 2.584.188a7.33 7.33 0 0 1 1.791.48c.084.02.167.103.209.187.02.083.041.166.041.25v3.395a.256.256 0 0 1-.104.209c-.188.041-.292.041-.375 0z" fill="#31A8FF"/></g></svg>