<svg width="48" height="48" xmlns="http://www.w3.org/2000/svg"><g fill="none"><path d="M47.947 12.47c0-1.017-.102-2.032-.303-3.028a9.99 9.99 0 0 0-2.85-5.36 9.006 9.006 0 0 0-2.585-1.81 10.437 10.437 0 0 0-2.954-.977c-1.016-.201-2.137-.201-3.153-.295H11.014c-.782.014-1.562.081-2.335.201a8.35 8.35 0 0 0-2.242.59c-.198.093-.514.2-.712.294-.683.365-1.331.791-1.94 1.273-.197.201-.408.295-.606.483a8.653 8.653 0 0 0-1.86 2.438A9.166 9.166 0 0 0 .303 9.214c-.15.999-.252 2.005-.303 3.015v23.355c0 1.017.102 2.032.303 3.028a9.99 9.99 0 0 0 2.85 5.36 9.004 9.004 0 0 0 2.545 1.755c.932.472 1.928.802 2.955.978 1.016.201 2.137.201 3.152.295h24.35c1.057-.001 2.113-.1 3.153-.295a10.437 10.437 0 0 0 2.901-.965c.954-.46 1.842-1.05 2.638-1.755a8.656 8.656 0 0 0 1.834-2.439 9.166 9.166 0 0 0 1.016-2.934A30.53 30.53 0 0 0 48 35.584V12.47h-.053z" fill="#F05138"/><path d="M32.053 36.034c-4.274 2.335-10.144 2.572-16.04.184A24.758 24.758 0 0 1 4.71 27.064c1.29.963 2.694 1.76 4.181 2.375 6.094 2.638 12.202 2.519 16.488 0a85.012 85.012 0 0 1-15.169-14.88 16.567 16.567 0 0 1-2.03-2.637 116.973 116.973 0 0 0 14.746 10.552 103.664 103.664 0 0 1-10.38-12.307 102.45 102.45 0 0 0 17.147 13.27l.66.37c.178-.431.332-.872.46-1.32 1.425-4.907-.197-10.486-3.758-15.103 8.244 4.71 13.124 13.56 11.093 20.973 0 .198-.106.396-.172.594l.066.079c4.076 4.814 2.955 9.906 2.44 8.943-2.229-4.023-6.357-2.783-8.428-1.94z" fill="#FFF"/></g></svg>