<svg width="48" height="48" xmlns="http://www.w3.org/2000/svg"><path d="M3.438 27.365a5.814 5.814 0 0 0 .994-.091c.158-.029.307-.066.446-.11.14-.045.262-.098.366-.159l-.145-1.026a5.713 5.713 0 0 1-.548.102 4.95 4.95 0 0 1-.699.06c-.158 0-.3-.019-.427-.055a.757.757 0 0 1-.532-.518 1.655 1.655 0 0 1-.072-.53V22.54h2.17v-1.1h-2.17v-1.425H1.327v1.424H0v1.101h1.327v2.644c0 .383.05.712.15.986.1.274.244.498.43.674.183.179.404.31.664.395.26.084.549.126.867.126zm4.239-.113v-4.196c.057-.075.12-.143.19-.204.07-.06.148-.113.234-.156a1.19 1.19 0 0 1 .312-.113 1.733 1.733 0 0 1 .833.03.902.902 0 0 1 .349.207.908.908 0 0 1 .223.365c.052.15.078.33.078.537v3.53h1.493v-3.519c0-.426-.05-.79-.153-1.093a1.993 1.993 0 0 0-.427-.744 1.66 1.66 0 0 0-.655-.427 2.464 2.464 0 0 0-.839-.137 1.89 1.89 0 0 0-1.1.349c-.101.072-.197.155-.288.25a2.325 2.325 0 0 0-.25.309V19H6.183v8.252h1.494zm6.887 0V23.76c.068-.165.154-.308.258-.43.104-.122.229-.222.376-.3.122-.069.26-.12.416-.154.156-.034.33-.05.524-.05a5.245 5.245 0 0 1 1.193.139l.22-1.488a3.998 3.998 0 0 0-1.09-.145c-.391 0-.751.094-1.08.282-.33.188-.613.447-.85.776l-.01-.129-.06-.822h-1.39v5.813h1.493zm6.645.108c.563 0 1.05-.11 1.462-.328.411-.219.712-.462.902-.73l-.747-.807a1.574 1.574 0 0 1-.671.5c-.276.111-.56.167-.854.167-.208 0-.4-.033-.575-.097a1.489 1.489 0 0 1-.785-.658 2.06 2.06 0 0 1-.193-.562v-.016h3.943v-.634c0-.426-.059-.816-.177-1.168a2.54 2.54 0 0 0-.516-.906 2.35 2.35 0 0 0-.835-.582 2.866 2.866 0 0 0-1.12-.207c-.405 0-.78.073-1.123.22a2.64 2.64 0 0 0-.892.618c-.25.265-.446.58-.586.948-.14.367-.21.773-.21 1.217v.215c0 .39.072.756.213 1.098.142.343.343.639.604.89.262.254.575.455.94.601.366.147.773.22 1.22.22zm1.016-3.562h-2.45c.036-.19.09-.362.16-.516.073-.154.162-.287.27-.398.103-.11.225-.196.365-.255.14-.059.294-.089.462-.089.19 0 .357.03.502.09a1.1 1.1 0 0 1 .368.238 1.163 1.163 0 0 1 .322.811v.119zm5.087 3.562c.562 0 1.05-.11 1.461-.328.412-.219.713-.462.903-.73l-.747-.807a1.574 1.574 0 0 1-.672.5c-.275.111-.56.167-.854.167-.207 0-.4-.033-.575-.097a1.489 1.489 0 0 1-.784-.658 2.06 2.06 0 0 1-.193-.562v-.016h3.943v-.634c0-.426-.06-.816-.177-1.168a2.54 2.54 0 0 0-.516-.906 2.35 2.35 0 0 0-.835-.582 2.866 2.866 0 0 0-1.12-.207c-.405 0-.78.073-1.123.22a2.64 2.64 0 0 0-.892.618c-.251.265-.446.58-.586.948-.14.367-.21.773-.21 1.217v.215c0 .39.071.756.213 1.098.141.343.343.639.604.89.262.254.575.455.94.601.366.147.772.22 1.22.22zm1.015-3.562h-2.45c.036-.19.09-.362.162-.516.071-.154.16-.287.268-.398.104-.11.226-.196.366-.255.14-.059.293-.089.462-.089.19 0 .357.03.502.09a1.1 1.1 0 0 1 .368.238 1.163 1.163 0 0 1 .322.811v.119zm4.814 3.562c.315 0 .566-.093.754-.277a.934.934 0 0 0 .282-.696.97.97 0 0 0-.276-.704c-.185-.19-.438-.284-.76-.284-.326 0-.58.095-.763.287a.978.978 0 0 0-.274.701c0 .276.093.507.28.693.185.187.438.28.757.28zm6.666-6.614c.265 0 .476-.074.632-.223a.756.756 0 0 0 .233-.572.756.756 0 0 0-.233-.572c-.156-.149-.367-.223-.632-.223s-.473.077-.625.23a.772.772 0 0 0-.229.565c0 .23.078.419.234.57.156.15.363.225.62.225zM38.1 29.6c.39 0 .738-.043 1.042-.129.305-.086.563-.22.774-.403.211-.179.372-.407.483-.685.111-.277.167-.61.167-.997V21.44h-2.976v1.22h1.466v4.727c0 .187-.027.342-.08.465a.795.795 0 0 1-.215.298.85.85 0 0 1-.33.162 1.646 1.646 0 0 1-.406.048l-.164-.003a3.455 3.455 0 0 1-.228-.013 3.319 3.319 0 0 1-.24-.019 1.496 1.496 0 0 1-.18-.03l-.075 1.215a3.448 3.448 0 0 0 .398.064c.093.01.187.018.282.022.095.003.189.005.282.005zm7.285-2.235a4.11 4.11 0 0 0 1.08-.132c.322-.087.598-.21.827-.368.225-.157.4-.344.524-.561.123-.217.185-.454.185-.712 0-.28-.062-.52-.185-.723a1.646 1.646 0 0 0-.513-.518 3.062 3.062 0 0 0-.78-.344c-.3-.09-.626-.163-.977-.22a4.175 4.175 0 0 1-.602-.126 1.397 1.397 0 0 1-.37-.164.492.492 0 0 1-.194-.196.538.538 0 0 1 .188-.685.957.957 0 0 1 .333-.15c.136-.037.296-.054.478-.054.215 0 .399.026.55.08a.952.952 0 0 1 .364.215.687.687 0 0 1 .145.228.752.752 0 0 1 .048.272h1.494c0-.269-.06-.518-.178-.747a1.755 1.755 0 0 0-.51-.596 2.652 2.652 0 0 0-.822-.39 3.86 3.86 0 0 0-1.09-.142c-.388 0-.735.048-1.043.145-.308.096-.57.227-.784.392-.215.165-.38.356-.495.575a1.46 1.46 0 0 0-.172.687c0 .248.057.466.17.656.112.19.27.356.47.5.2.146.441.27.722.373.281.102.592.187.932.255.27.05.491.1.667.15.175.05.317.104.424.162.104.06.176.125.218.193a.447.447 0 0 1 .061.237c0 .09-.022.171-.067.247a.611.611 0 0 1-.201.198 1.21 1.21 0 0 1-.357.137 2.24 2.24 0 0 1-.508.052c-.161 0-.318-.017-.47-.049a1.293 1.293 0 0 1-.406-.156.818.818 0 0 1-.42-.677h-1.423c0 .237.059.472.175.707.116.234.287.443.513.626.226.186.506.336.84.451.336.115.722.172 1.159.172z" fill="#049EF4"/></svg>