<svg width="48" height="48" xmlns="http://www.w3.org/2000/svg" xmlns:xlink="http://www.w3.org/1999/xlink"><defs><path d="M34.038 47.672a2.988 2.988 0 0 0 2.38-.091l9.883-4.755A3 3 0 0 0 48 40.122V7.878a3 3 0 0 0-1.699-2.703L36.42.419a2.988 2.988 0 0 0-3.41.581L14.09 18.26l-8.24-6.255a1.998 1.998 0 0 0-2.553.113L.654 14.522a2 2 0 0 0-.002 2.958L7.8 24 .652 30.52a2 2 0 0 0 .002 2.958l2.643 2.404a1.998 1.998 0 0 0 2.553.114l8.24-6.256L33.01 47c.298.3.65.525 1.028.672zm1.97-34.569L21.651 24l14.355 10.897V13.103z" id="a"/><linearGradient x1="50%" y1="0%" x2="50%" y2="100%" id="c"><stop stop-color="#FFF" offset="0%"/><stop stop-color="#FFF" stop-opacity="0" offset="100%"/></linearGradient></defs><g fill="none" fill-rule="evenodd"><mask id="b" fill="#fff"><use xlink:href="#a"/></mask><g mask="url(#b)"><g transform="translate(-.188)"><path d="M46.489 5.182L36.599.42a2.99 2.99 0 0 0-3.412.58L.811 30.52a2 2 0 0 0 .002 2.958l2.644 2.404a2 2 0 0 0 2.555.114L45 6.418c1.308-.993 3.186-.06 3.186 1.582v-.115a3 3 0 0 0-1.698-2.703z" fill="#0065A9" fill-rule="nonzero"/><path d="M46.489 42.818l-9.89 4.762a2.99 2.99 0 0 1-3.412-.58L.811 17.48a2 2 0 0 1 .002-2.958l2.644-2.404a2 2 0 0 1 2.555-.113L45 41.582c1.308.993 3.186.06 3.186-1.582v.115a3 3 0 0 1-1.698 2.703z" fill="#007ACC" fill-rule="nonzero"/><path d="M36.6 47.58a2.991 2.991 0 0 1-3.413-.58c1.108 1.107 3 .323 3-1.243V2.243c0-1.566-1.892-2.35-3-1.243A2.991 2.991 0 0 1 36.6.42l9.889 4.755a3 3 0 0 1 1.7 2.703v32.244a3 3 0 0 1-1.7 2.703l-9.889 4.756z" fill="#1F9CF0" fill-rule="nonzero"/><path d="M34.196 47.672a2.988 2.988 0 0 0 2.38-.091l9.883-4.756a3 3 0 0 0 1.7-2.703V7.878a3 3 0 0 0-1.7-2.703L36.578.419a2.989 2.989 0 0 0-3.41.581L14.25 18.26l-8.241-6.255a1.998 1.998 0 0 0-2.553.113L.812 14.522A2 2 0 0 0 .81 17.48L7.957 24 .81 30.52a2 2 0 0 0 .002 2.958l2.643 2.404a1.998 1.998 0 0 0 2.553.114l8.24-6.256L33.169 47c.299.3.65.525 1.028.672zm1.97-34.569L21.81 24l14.355 10.897V13.103z" fill="url(#c)" opacity=".25"/></g></g></g></svg>