<svg width="48" height="48" xmlns="http://www.w3.org/2000/svg"><g transform="translate(0 1)" fill="none"><path fill="#03A9F4" d="M45.8181818 38.1818182L5.01818182 44.6181818 0 11.7818182 40.5818182 5.56363636z"/><path fill="#039BE5" d="M40.5818182 5.56363636L45.8181818 38.1818182 5.01818182 44.6181818 4.58181818 41.4545455z"/><path fill="#29B6F6" d="M0 11.7818182L2.61818182 28.6909091 22.0363636 8.4z"/><path d="M6.873 42.11L2.509 13.526l36.327-5.563 4.582 28.363L6.873 42.11zM5.018 15.381L8.728 39.6l32.181-5.127-3.818-24.11-32.073 5.019z" fill="#FFF"/><path fill="#FFF" d="M9.92727273 26.1818182L10.3636364 29.4545455 37.0909091 25.2 36.5454545 21.9272727z"/><path d="M15.927 34.145l-3.382 4.037.437-5.237c0-.109 0-.218.109-.327l5.673-13.854c.218-.546.872-.873 1.418-.546l.982.437c.545.218.872.872.545 1.418l-5.564 13.745c-.109.11-.109.218-.218.327zm15.382-5.563L21.164 16.69c-.437-.436-.328-1.2.109-1.527l.872-.655c.437-.436 1.2-.327 1.528.11l10.145 11.89-2.509 2.073zm3.164-1.31s2.618.764 2.618 3.819c0 1.964-.546 2.727-.546 2.727s-.436-1.309-2.509-2.073c-2.836-.981-2.727-3.163-2.727-3.163l2.4-.546.764-.763z" fill="#FFF"/><path fill="#03A9F4" d="M20.0727273 24L18.7636364 27.1636364 20.8363636 25.2 21.2727273 24z"/><path fill="#039BE5" d="M19.0909091 29.4545455L20.8363636 25.2 18.7636364 27.1636364 17.8909091 29.4545455z"/><path fill="#03A9F4" d="M14.4 29.4545455L16.5818182 24 15.3818182 24 13.2 29.4545455z"/><path fill="#039BE5" d="M34.8 25.9636364L31.2 21.8181818 29.7818182 21.8181818 33.6 26.1818182 33.8181818 26.5090909 31.3090909 28.5818182 29.8909091 26.9454545 29.8909091 26.9454545 26.4 22.9090909 24.9818182 22.9090909 28.2545455 26.7272727 30.4363636 29.3454545 31.2 30.1090909 31.9636364 29.4545455 34.4727273 27.2727273 35.3454545 26.6181818z"/><path fill="#03A9F4" d="M16.3636364 19.5272727L16.3636364 20.7272727 21.8181818 23.0181818 21.8181818 21.8181818z"/><path fill="#039BE5" d="M17.4545455 33.3818182L14.0727273 31.9636364 13.2 32.8363636 17.4545455 34.5818182z"/><path fill="#03A9F4" d="M12 31.0909091L12 32.2909091 13.2 32.8363636 14.0727273 31.9636364z"/><path d="M39.164 10.036v.11l.763 4.581 1.418-3.927c0-.11.11-.218.11-.327l-.437-2.51c-.873.546-1.636 1.419-1.854 2.073zM34.8 32.073a5.318 5.318 0 0 0-.764-.328c-.545-.218-.872-.327-1.2-.545L31.418 36l2.4-.327.982-3.6zm-4.036 6.218l-.546 2.4 2.291-.436.655-2.291-2.4.327zm5.018-17.782v.11l-.437 1.526 1.2-.218.437 2.4.873-3.163.545-1.746-.764-4.8-1.2 3.818-.654 2.073z" fill="#0277BD"/><path d="M37.636 14.618l.764 4.8 1.418-4.69-.763-4.583c-.546 1.528-1.091 3.055-1.2 3.273l-.219 1.2zM31.418 36l-.654 2.29 2.4-.326.654-2.291-2.4.327zm5.564-11.673l-.437-2.4-1.2.218-.981 3.491 2.29-.327.328-.982zm-2.51 2.946l-.654.327-.982 3.6c.328.218.764.436 1.2.545.328.11.546.219.764.328l1.09-3.928a3.658 3.658 0 0 0-1.417-.872z" fill="#90A4AE"/><path d="M35.89 28.145l.765-2.945-2.4.327-.655 2.4.873-.763c0 .109.763.327 1.418.981z" fill="#0277BD"/><path d="M34.473 27.273l-.873.763-.873 3.164c.328.218.764.436 1.2.545.328.11.546.219.764.328l1.09-3.928c-.545-.654-1.308-.872-1.308-.872z" fill="#90A4AE"/><path d="M37.09 1.636c-6.545 0-10.908 1.637-10.908 1.637v.545c9.382 0 10.582 3.491 10.909 4.364V1.636z" fill="#78909C"/><path d="M45.818 3.6c-.218.436-.436.764-1.09.764-1.2 0-2.183-1.746-2.183-1.746C40.691 1.418 37.091 0 33.818 0c-6.545 0-8.727 1.636-8.727 1.636v.546c4.582 0 6.327.436 7.964 1.636 2.618 1.964 2.4 6.437 1.418 9.927l-1.964 5.891 3.164.982 2.29-7.2c.11-.109.655-1.745 1.2-3.382.328-.872 1.2-1.963 2.292-2.29.654-.219 1.527-.328 2.072.109.546.436.546.763.437 1.2l2.181.654L48 4.364 45.818 3.6z" fill="#D7DEE2"/><path d="M44.727 4.364c-1.2 0-2.182-1.746-2.182-1.746l-.872 2.727c-.328 1.2-1.637 1.746-2.728 1.419l-4.69-1.528c.545.982.763 2.073.872 3.382l4.146 1.31c.327-.655.872-1.419 1.636-1.855l.655-.328c.654-.218 1.527-.327 2.072.11.546.436.546.763.437 1.2L45.818 3.6c-.218.436-.436.764-1.09.764z" fill="#90A4AE"/><path d="M32.51 19.636l-9.492 22.146c-.545 1.418.218 3.163 1.746 3.6l.981.327c1.528.436 3.055-.436 3.382-1.527l6.546-23.564-3.164-.982z" fill="#424242"/></g></svg>